<svg width="284" height="59" viewBox="0 0 284 59" fill="none" xmlns="http://www.w3.org/2000/svg">
<g clip-path="url(#clip0_38_122)">
<path d="M23.7141 0C30.3232 0 36.2648 3.34105 40.5639 8.74483C44.8042 14.0615 47.4348 21.4059 47.4348 29.5058C47.4348 37.6057 44.8042 44.9327 40.5639 50.2668C36.2713 55.6531 30.3232 58.9942 23.7141 58.9942C17.105 58.9942 11.1634 55.6531 6.86427 50.2668C2.63054 44.9327 0 37.594 0 29.5058C0 21.4176 2.63054 14.0615 6.87081 8.74483C11.1634 3.34105 17.105 0 23.7141 0ZM39.2487 9.56411C35.2505 4.56126 29.767 1.44682 23.7141 1.44682C17.6613 1.44682 12.1777 4.56126 8.17953 9.56411C4.14866 14.6541 1.62936 21.7023 1.62936 29.5058C1.62936 37.3093 4.14866 44.3401 8.18608 49.4301C12.1842 54.4504 17.6809 57.5474 23.7207 57.5474C29.7604 57.5474 35.2571 54.4504 39.2552 49.4301C43.2926 44.3401 45.8119 37.2919 45.8119 29.5058C45.8119 21.7197 43.2926 14.6541 39.2552 9.56411H39.2487Z" fill="#949494"/>
<path d="M39.308 40.8712C38.1759 42.9281 36.6774 44.6248 34.9564 45.8101C33.2355 46.9606 31.292 47.623 29.2373 47.623C27.4967 47.623 25.8674 47.164 24.3689 46.3389C23.1125 47.1466 21.7187 47.623 20.1482 47.623C16.6474 47.623 13.5195 45.7637 11.2816 42.748C9.09603 39.8195 7.74805 35.7986 7.74805 31.3536C7.74805 26.9085 9.10258 22.8877 11.2816 19.9766C13.5195 16.9609 16.6474 15.1016 20.1482 15.1016C21.7187 15.1016 23.1125 15.578 24.3885 16.3683C25.8674 15.5432 27.5163 15.1016 29.2373 15.1016C31.3509 15.1016 33.3467 15.5955 35.107 16.7459C36.6774 17.786 38.0516 19.3491 39.1444 21.5396C40.0343 23.3525 39.6286 25.0957 38.5489 26.3159C38.0843 26.8446 37.4954 27.2862 36.8476 27.5826C36.1801 27.8963 35.4407 28.0764 34.6816 28.0764C33.013 28.0939 31.2724 27.3211 30.0356 25.4094L29.8524 25.1131C28.2623 22.661 26.4628 19.8952 24.3165 18.1811C23.3742 18.8726 22.4843 19.7442 21.7252 20.7668C19.7098 23.4687 18.4665 27.2223 18.4665 31.3536C18.4665 35.4849 19.7098 39.2559 21.7252 41.9403C22.4843 42.9804 23.3546 43.8346 24.3165 44.526C26.4432 42.8119 28.2427 40.0635 29.7935 37.6406L30.0684 37.2106C31.2724 35.3512 32.9214 34.561 34.5311 34.5087C35.3098 34.4913 36.0885 34.6423 36.7887 34.9561C37.4757 35.2524 38.0843 35.6824 38.5685 36.2228C39.6221 37.4081 40.067 39.0699 39.3472 40.8189L39.308 40.8712ZM33.9553 44.6597C35.493 43.6196 36.8083 42.1089 37.8226 40.2611C38.3068 39.0583 38.0058 37.9369 37.286 37.135C36.9523 36.7748 36.5269 36.461 36.0623 36.2635C35.5977 36.0659 35.0808 35.9497 34.5835 35.9671C33.5103 36.002 32.3586 36.5772 31.4752 37.9427L31.2004 38.3727C29.643 40.7782 27.8893 43.4918 25.7038 45.3569C26.8162 45.8857 28.0006 46.182 29.2373 46.182C30.919 46.182 32.5353 45.6358 33.9553 44.6655V44.6597ZM22.9554 45.415C22.0132 44.6887 21.1232 43.7823 20.3445 42.748C18.159 39.8195 16.8241 35.7986 16.8241 31.3536C16.8241 26.9085 18.159 22.8877 20.3445 19.9766C21.1232 18.9365 22.0132 18.0359 22.9751 17.2921C22.0851 16.8157 21.1429 16.5484 20.1417 16.5484C17.2363 16.5484 14.5665 18.1637 12.623 20.761C10.6076 23.4629 9.36432 27.2165 9.36432 31.3478C9.36432 35.479 10.6076 39.2501 12.623 41.9345C14.5665 44.5551 17.2298 46.1646 20.1417 46.1646C21.1429 46.1646 22.0851 45.8857 22.9554 45.4092V45.415ZM29.2308 16.5484C28.0071 16.5484 26.8227 16.8273 25.7103 17.356C27.8959 19.2154 29.6692 21.9522 31.2462 24.3868L31.4294 24.6831C32.339 26.0834 33.543 26.6413 34.6489 26.6238C35.1462 26.6238 35.6304 26.5076 36.0754 26.2926C36.54 26.0951 36.9261 25.7813 37.2598 25.421C37.9796 24.5785 38.261 23.3815 37.6328 22.109C36.6709 20.1683 35.4865 18.7971 34.1123 17.908C32.6662 16.9551 31.0041 16.5426 29.2242 16.5426L29.2308 16.5484Z" fill="#949494"/>
<path d="M23.1575 13.8291V13.8116C23.1575 12.8413 22.7321 11.9697 22.0123 11.3422C21.3056 10.6972 20.311 10.3021 19.2378 10.3021C18.9238 10.3021 18.6816 10.0871 18.6816 9.82561C18.6816 9.56414 18.9238 9.33172 19.2378 9.33172C20.311 9.33172 21.3122 8.9366 22.0123 8.30907C22.7321 7.6641 23.1575 6.79252 23.1575 5.8396C23.1575 5.56069 23.4192 5.3457 23.7137 5.3457C24.0082 5.3457 24.2699 5.56069 24.2699 5.8396C24.2699 6.79252 24.6952 7.66991 25.415 8.30907C26.1217 8.9366 27.1164 9.33172 28.1895 9.33172C28.5036 9.33172 28.7457 9.56414 28.7457 9.82561C28.7457 10.0871 28.5036 10.3021 28.1895 10.3021C27.1164 10.3021 26.1348 10.7146 25.4281 11.3538C24.7083 12.0104 24.2634 12.9168 24.2634 13.8872C24.2634 14.1486 24.0016 14.3636 23.7071 14.3636C23.4127 14.3636 23.1509 14.1486 23.1509 13.8872V13.8232L23.1575 13.8291ZM22.7845 10.6507C23.1706 10.9993 23.4912 11.377 23.7268 11.8186C23.9689 11.3886 24.283 11.011 24.6494 10.6798C25.0224 10.3311 25.4478 10.0522 25.9254 9.82561C25.4412 9.61062 25.0028 9.33172 24.6298 9.00052C24.2568 8.66932 23.9427 8.29164 23.7071 7.86166C23.465 8.29164 23.1509 8.66932 22.7845 9.00052C22.4115 9.33172 21.9862 9.61062 21.5085 9.82561C21.9927 10.0406 22.4181 10.3195 22.7845 10.6507Z" fill="#949494"/>
<path d="M62.3545 14.6192V14.8516V15.1015H62.6162H65.1682V21.371V21.6209H65.4104H65.6852H65.9469V21.371V15.1015H68.4859H68.7607V14.8516V14.6192V14.3926H68.4859H62.6162H62.3545V14.6192Z" fill="#949494"/>
<path d="M74.1855 14.6541V21.371V21.6209H74.4473H74.7025H74.9839V21.371V18.919H78.8119V21.371V21.6209H79.0736H79.3354H79.5906V21.371V14.6541V14.4216H79.3354H79.0736H78.8119V14.6541V18.2101H74.9839V14.6541V14.4216H74.7025H74.4473H74.1855V14.6541Z" fill="#949494"/>
<path d="M85.0146 14.6077V21.3711V21.621H85.296H89.6279H89.8831V21.3711V21.1445V20.9121H89.6279H85.813V18.9016H89.6279H89.8831V18.675V18.4426V18.2102H89.6279H85.813V15.0667H89.6279H89.8831V14.8343V14.6077V14.3752H89.6279H85.296H85.0146V14.6077Z" fill="#949494"/>
<path d="M66.8175 41.4405C68.1916 43.1139 69.8602 43.9506 71.8168 43.9506C73.1517 43.9506 74.4015 43.7298 75.5794 43.2766C76.7507 42.8292 77.778 42.2133 78.6418 41.4347L79.3092 42.0332C78.3473 42.8873 77.2218 43.5613 75.9393 44.0552C74.6567 44.5433 73.2826 44.7932 71.8168 44.7932C68.8918 44.7932 66.3921 43.8751 64.3243 42.039C62.2566 40.2029 61.2227 37.9832 61.2227 35.3801C61.2227 32.777 62.2566 30.569 64.3243 28.7329C66.3921 26.8968 68.8918 25.9729 71.8168 25.9729C73.2826 25.9729 74.6567 26.2228 75.9393 26.7166C77.2218 27.2105 78.3473 27.8846 79.3092 28.7329L78.6418 29.3256C77.7715 28.547 76.7507 27.931 75.5794 27.4836C74.4015 27.0304 73.1517 26.8038 71.8168 26.8038C69.8602 26.8038 68.1982 27.6405 66.8175 29.3198C65.4433 30.999 64.7497 33.0211 64.7497 35.3859C64.7497 37.7508 65.4368 39.7729 66.8175 41.4463V41.4405Z" fill="#949494"/>
<path d="M85.6368 34.9618H96.2375V25.9729H99.7776V44.7932H96.2375V35.8043H85.6368V44.7932H82.0967V25.9729H85.6368V34.9618Z" fill="#949494"/>
<path d="M110.228 29.68L107.231 35.3801L102.297 44.7932H101.257L106.191 35.3801L109.718 28.6922L111.138 25.9729H112.178L117.125 35.3859L122.072 44.799H118.179L113.232 35.3859L110.235 29.6858L110.228 29.68Z" fill="#949494"/>
<path d="M128.053 43.9506H138.654V44.7932H124.52V25.9729H128.06V43.9565L128.053 43.9506Z" fill="#949494"/>
<path d="M141.355 25.967H144.896V44.7873H141.355V25.967Z" fill="#949494"/>
<path d="M153.114 32.167C154.116 32.6318 155.222 33.1431 156.432 33.6893C157.643 34.2413 158.749 34.927 159.756 35.7579C160.764 36.5888 161.268 37.7625 161.268 39.279C161.268 41.3185 160.515 42.7421 159.004 43.5614C157.492 44.3807 155.758 44.7816 153.782 44.7816C152.519 44.7816 151.387 44.5317 150.379 44.0262C149.372 43.5265 148.626 42.8757 148.141 42.0797L148.999 41.3069C149.391 42.2424 150.072 42.9222 151.027 43.358C151.989 43.788 152.964 43.9681 153.952 43.8926C154.94 43.817 155.817 43.4917 156.583 42.9164C157.348 42.3412 157.728 41.5045 157.728 40.4179C157.76 39.2907 157.276 38.4133 156.275 37.7857C155.274 37.1582 154.161 36.5771 152.944 36.0426C151.727 35.508 150.608 34.9037 149.594 34.2471C148.58 33.5905 148.069 32.6492 148.069 31.4465C148.069 29.4128 148.822 27.9892 150.333 27.1757C151.838 26.3564 153.579 25.9497 155.555 25.9497C157.531 25.9497 159.239 26.554 160.489 27.7684L159.724 28.4482C159.095 27.7568 158.317 27.2861 157.394 27.0363C156.471 26.7864 155.581 26.7457 154.724 26.9084C153.867 27.0711 153.128 27.4372 152.519 28.0124C151.91 28.5877 151.603 29.343 151.603 30.296C151.603 31.0804 152.107 31.7079 153.108 32.1786L153.114 32.167Z" fill="#949494"/>
<path d="M169.841 29.3139C168.466 30.9932 167.779 33.0152 167.779 35.3801C167.779 37.745 168.466 39.7787 169.841 41.4521C171.215 43.1255 172.883 43.9623 174.84 43.9623C176.005 43.9623 177.084 43.6427 178.079 43.0035C179.074 42.3644 179.898 41.5102 180.546 40.4469C181.312 39.157 181.75 37.745 181.874 36.2227H176.024V35.3801H185.441C185.441 36.6875 185.159 37.9135 184.603 39.0524C184.047 40.1912 183.288 41.1848 182.332 42.0332C181.377 42.8815 180.245 43.5613 178.962 44.0552C177.68 44.5433 176.306 44.7932 174.84 44.7932C171.915 44.7932 169.415 43.8751 167.341 42.039C165.273 40.2029 164.239 37.9832 164.239 35.3801C164.239 32.777 165.273 30.569 167.341 28.7329C169.409 26.891 171.908 25.9729 174.84 25.9729C176.306 25.9729 177.68 26.2228 178.962 26.7166C180.245 27.2105 181.37 27.8846 182.332 28.7329L181.665 29.3256C180.795 28.5528 179.774 27.9427 178.603 27.4836C177.431 27.0304 176.175 26.798 174.84 26.798C172.883 26.798 171.221 27.6347 169.841 29.3139Z" fill="#949494"/>
<path d="M205.896 42.039C203.822 43.8751 201.329 44.7932 198.41 44.7932C195.492 44.7932 192.986 43.8751 190.911 42.039C188.843 40.2029 187.81 37.9832 187.81 35.3801C187.81 32.777 188.843 30.569 190.911 28.7329C192.979 26.891 195.479 25.9729 198.41 25.9729C201.342 25.9729 203.828 26.891 205.896 28.7329C207.97 30.5748 209.004 32.7886 209.004 35.3801C209.004 37.9716 207.97 40.197 205.896 42.039ZM193.411 41.4579C194.785 43.1314 196.454 43.9681 198.41 43.9681C200.367 43.9681 202.022 43.1314 203.41 41.4579C204.797 39.7845 205.484 37.7624 205.484 35.3859C205.484 33.0094 204.79 30.999 203.41 29.3198C202.022 27.6405 200.36 26.8038 198.41 26.8038C196.46 26.8038 194.792 27.6405 193.411 29.3198C192.03 30.999 191.35 33.0211 191.35 35.3859C191.35 37.7508 192.037 39.7845 193.411 41.4579Z" fill="#949494"/>
<path d="M212.957 25.967L229.159 40.3539V25.967H230.107V44.7873H229.159L212.957 30.4005V44.7873H212.008V25.967H212.957Z" fill="#949494"/>
<path d="M243.809 31.0166C243.24 31.5221 242.52 31.7778 241.65 31.7778C240.78 31.7778 240.066 31.5221 239.497 31.0166C238.928 30.5111 238.646 29.8661 238.646 29.0817C238.646 28.2973 238.928 27.6523 239.497 27.141C240.066 26.6297 240.78 26.374 241.65 26.374C242.52 26.374 243.24 26.6297 243.809 27.141C244.379 27.6523 244.667 28.2973 244.667 29.0817C244.667 29.8661 244.379 30.5111 243.809 31.0166ZM240.034 30.5866C240.466 30.976 241.002 31.1735 241.65 31.1735C242.298 31.1735 242.834 30.976 243.266 30.5808C243.698 30.1857 243.914 29.686 243.914 29.0817C243.914 28.4774 243.698 27.9661 243.266 27.571C242.834 27.1759 242.298 26.9783 241.65 26.9783C241.002 26.9783 240.466 27.1759 240.034 27.571C239.602 27.9661 239.386 28.4716 239.386 29.0817C239.386 29.6918 239.602 30.1973 240.034 30.5866Z" fill="#949494"/>
<path d="M251.132 29.9998L251.714 30.3833C251.44 30.8365 251.073 31.1794 250.615 31.4234C250.157 31.6616 249.633 31.7837 249.045 31.7837C248.174 31.7837 247.461 31.528 246.892 31.0225C246.322 30.517 246.041 29.872 246.041 29.0876C246.041 28.3032 246.322 27.6582 246.892 27.1469C247.461 26.6355 248.174 26.3799 249.045 26.3799C249.581 26.3799 250.072 26.4845 250.517 26.6936C250.962 26.9028 251.315 27.1992 251.59 27.5827L250.988 27.9662C250.798 27.6524 250.536 27.4142 250.196 27.2398C249.856 27.0655 249.47 26.9842 249.051 26.9842C248.403 26.9842 247.867 27.1817 247.435 27.5768C247.003 27.972 246.787 28.4775 246.787 29.0876C246.787 29.6977 247.003 30.2032 247.435 30.5925C247.867 30.9818 248.403 31.1794 249.051 31.1794C249.98 31.1794 250.674 30.7901 251.139 30.0056L251.132 29.9998Z" fill="#949494"/>
<path d="M253.899 31.6442V26.4902H258.467V27.0829H254.619V28.5936H256.942V29.1863H254.619V31.0515H258.702V31.6442H253.899Z" fill="#949494"/>
<path d="M259.763 31.6442L262.603 26.4902H263.205L266.077 31.6442H265.292L264.507 30.2554H261.3L260.535 31.6442H259.763ZM261.634 29.657H264.186L262.904 27.3734L261.634 29.657Z" fill="#949494"/>
<path d="M268.034 31.6442V26.4902H268.414L272.183 30.3426V26.4902H272.903V31.6442H272.536L268.754 27.7918V31.6442H268.034Z" fill="#949494"/>
<path d="M275.441 31.6675V26.4961H276.174V31.6675H275.441Z" fill="#949494"/>
<path d="M283.418 29.9998L284 30.3833C283.726 30.8365 283.359 31.1794 282.901 31.4234C282.443 31.6616 281.92 31.7837 281.331 31.7837C280.46 31.7837 279.747 31.528 279.178 31.0225C278.609 30.517 278.327 29.872 278.327 29.0876C278.327 28.3032 278.609 27.6582 279.178 27.1469C279.747 26.6355 280.46 26.3799 281.331 26.3799C281.867 26.3799 282.358 26.4845 282.803 26.6936C283.248 26.9028 283.601 27.1992 283.876 27.5827L283.274 27.9662C283.084 27.6524 282.823 27.4142 282.482 27.2398C282.142 27.0655 281.756 26.9842 281.337 26.9842C280.689 26.9842 280.153 27.1817 279.721 27.5768C279.289 27.972 279.073 28.4775 279.073 29.0876C279.073 29.6977 279.289 30.2032 279.721 30.5925C280.153 30.9818 280.689 31.1794 281.337 31.1794C282.266 31.1794 282.96 30.7901 283.425 30.0056L283.418 29.9998Z" fill="#949494"/>
<path d="M240.249 43.0094V38.4481H237.802V37.8555H243.41V38.4481H240.962V43.0094H240.243H240.249Z" fill="#949494"/>
<path d="M249.187 42.3819C248.618 42.8874 247.898 43.143 247.028 43.143C246.158 43.143 245.444 42.8874 244.875 42.3819C244.306 41.8763 244.024 41.2314 244.024 40.447C244.024 39.6625 244.306 39.0176 244.875 38.5062C245.444 37.9949 246.158 37.7393 247.028 37.7393C247.898 37.7393 248.618 37.9949 249.187 38.5062C249.757 39.0176 250.045 39.6625 250.045 40.447C250.045 41.2314 249.757 41.8763 249.187 42.3819ZM245.412 41.9519C245.844 42.3412 246.38 42.5387 247.028 42.5387C247.676 42.5387 248.212 42.3412 248.644 41.9461C249.076 41.551 249.292 41.0513 249.292 40.447C249.292 39.8427 249.076 39.3313 248.644 38.9362C248.212 38.5411 247.676 38.3436 247.028 38.3436C246.38 38.3436 245.844 38.5411 245.412 38.9362C244.98 39.3313 244.764 39.8369 244.764 40.447C244.764 41.0571 244.98 41.5626 245.412 41.9519Z" fill="#949494"/>
<path d="M252.846 43.0094L250.948 37.8555H251.661L253.108 41.8357L254.58 37.8555H255.228L256.7 41.8241L258.146 37.8555H258.833L256.949 43.0094H256.419L254.887 38.8607L253.369 43.0094H252.839H252.846Z" fill="#949494"/>
<path d="M260.633 43.0094V37.8555H265.2V38.4481H261.353V39.9589H263.676V40.5515H261.353V42.4167H265.436V43.0094H260.633Z" fill="#949494"/>
<path d="M267.333 43.0094V37.8555H270.664C271.24 37.8555 271.685 37.9833 272.005 38.2332C272.326 38.483 272.483 38.8374 272.483 39.2907C272.483 39.6509 272.358 39.9705 272.103 40.2436C271.855 40.5167 271.521 40.6794 271.102 40.7433L272.555 43.0094H271.756L270.304 40.7549H268.053V43.0094H267.333ZM268.053 40.1506H270.618C271.357 40.1506 271.73 39.8717 271.73 39.3081C271.73 39.0408 271.639 38.8316 271.449 38.6747C271.259 38.5179 270.997 38.4481 270.651 38.4481H268.053V40.1506Z" fill="#949494"/>
<path d="M274.211 42.2308L274.63 41.6788C275.467 42.2599 276.338 42.5504 277.228 42.5504C277.771 42.5504 278.209 42.4516 278.543 42.2425C278.877 42.0333 279.04 41.7776 279.04 41.4697C279.04 41.2256 278.922 41.0222 278.693 40.8537C278.458 40.6852 278.124 40.5865 277.686 40.5516C277.555 40.54 277.332 40.5225 277.005 40.5051C276.684 40.4877 276.455 40.4702 276.318 40.4586C276.181 40.447 276.01 40.418 275.814 40.3831C275.611 40.3424 275.441 40.2959 275.297 40.232C274.748 39.988 274.466 39.6335 274.466 39.1687C274.466 38.762 274.676 38.4191 275.088 38.1519C275.5 37.8788 276.043 37.7451 276.717 37.7451C277.692 37.7451 278.621 38.024 279.498 38.5876L279.079 39.1222C278.353 38.6051 277.574 38.3494 276.73 38.3494C276.285 38.3494 275.925 38.4249 275.644 38.5818C275.363 38.7329 275.225 38.9247 275.225 39.1455C275.225 39.3256 275.317 39.4767 275.507 39.6045C275.624 39.68 275.768 39.7439 275.952 39.7846C276.135 39.8311 276.305 39.8601 276.468 39.8718C276.632 39.8834 276.861 39.9008 277.156 39.9124C277.457 39.9299 277.699 39.9473 277.895 39.9647C278.49 40.0287 278.962 40.1972 279.302 40.4761C279.642 40.755 279.812 41.092 279.812 41.4929C279.812 41.9577 279.583 42.3529 279.125 42.6666C278.667 42.9862 278.039 43.1431 277.254 43.1431C276.122 43.1431 275.107 42.8409 274.231 42.2366L274.211 42.2308Z" fill="#949494"/>
</g>
<defs>
<clipPath id="clip0_38_122">
<rect width="284" height="59" fill="white"/>
</clipPath>
</defs>
</svg>
