<svg width="306" height="45" viewBox="0 0 306 45" fill="none" xmlns="http://www.w3.org/2000/svg">
<g clip-path="url(#clip0_38_823)">
<path d="M430.65 0.486328H-163.5V44.8663H430.65V0.486328Z" fill="#0C3635"/>
<path d="M59.5098 35.256V34.146C59.8198 34.146 60.0798 34.376 60.0798 34.686C60.0798 34.996 59.8298 35.256 59.5098 35.256ZM59.5098 24.576V23.016L59.9098 23.416C60.0198 23.506 60.0798 23.646 60.0798 23.786C60.0798 23.956 60.0198 24.096 59.9098 24.186L59.5098 24.586V24.576ZM59.5098 13.436V12.326C59.8198 12.326 60.0798 12.586 60.0798 12.896C60.0798 13.206 59.8298 13.436 59.5098 13.436ZM59.5098 2.52602V1.16602C59.6498 1.16602 59.7898 1.22602 59.9098 1.33602C60.1398 1.53602 60.1398 1.90602 59.9098 2.10602L59.5098 2.53602V2.52602Z" fill="#CA9762"/>
<path d="M100.28 14.5162L96.6905 10.9162L93.0705 14.5162C92.9905 14.6262 92.8405 14.6862 92.7005 14.6862H88.3705L96.6905 23.0162L105.01 14.6862H100.68C100.54 14.6862 100.4 14.6262 100.28 14.5162ZM105.8 15.4762L97.4805 23.7762L105.8 32.1062V27.7962C105.8 27.6562 105.86 27.5162 105.94 27.3962L109.56 23.7662L105.94 20.1662C105.86 20.0562 105.8 19.9062 105.8 19.7662V15.4562V15.4762ZM100.68 32.9062H105.01L96.6905 24.5762L88.3705 32.9062H92.7005C92.8405 32.9062 92.9805 32.9662 93.0705 33.0762L96.6905 36.6762L100.28 33.0762C100.39 32.9662 100.53 32.9062 100.68 32.9062ZM87.5805 32.1162L95.9005 23.7862L87.5805 15.4862V19.7962C87.5805 19.9362 87.5205 20.0762 87.4405 20.1962L83.8205 23.7962L87.4405 27.4262C87.5205 27.5362 87.5805 27.6862 87.5805 27.8262V32.1362V32.1162ZM106.9 14.1262V19.5662L110.75 23.4162C110.95 23.6162 110.95 23.9862 110.75 24.1862L106.9 28.0362V33.4762C106.9 33.5362 106.87 33.6162 106.84 33.6762C106.78 33.8162 106.7 33.9362 106.56 33.9862C106.48 34.0162 106.42 34.0162 106.33 34.0162H100.9L97.0805 37.8662C96.8505 38.0962 96.5105 38.0962 96.2905 37.8662L92.4405 34.0162H87.0405C86.9605 34.0162 86.8705 34.0162 86.8105 33.9862C86.6705 33.9262 86.5605 33.8162 86.5005 33.6762C86.4705 33.6162 86.4705 33.5362 86.4705 33.4762V28.0362L82.6205 24.1862C82.5105 24.0962 82.4805 23.9262 82.4805 23.7862C82.4805 23.6462 82.5105 23.5062 82.6205 23.4162L86.4705 19.5662V14.1262C86.4705 14.0662 86.4705 13.9862 86.5005 13.9262C86.5605 13.7862 86.6705 13.6662 86.8105 13.6162C86.8705 13.5862 86.9505 13.5562 87.0405 13.5562H92.4405L96.2905 9.72621C96.5205 9.49621 96.8605 9.49621 97.0805 9.72621L100.9 13.5562H106.33C106.41 13.5562 106.47 13.5862 106.56 13.6162C106.7 13.6762 106.79 13.7862 106.84 13.9262C106.87 13.9862 106.9 14.0662 106.9 14.1262Z" fill="#CA9762"/>
<path d="M122.4 44.8663V34.6963C122.4 34.6363 122.43 34.5563 122.46 34.4963C122.49 34.4063 122.52 34.3563 122.57 34.2963L132.5 24.3463H120.39L113.83 30.9163V40.4063C113.83 40.7163 113.58 40.9763 113.26 40.9763H103.78L99.8995 44.8563H98.3195L102.2 40.9763H91.1695L95.0495 44.8563H93.4695L89.5895 40.9763H80.0795C79.7995 40.9763 79.5395 40.7163 79.5395 40.4063V30.9163L72.9795 24.3463H60.8695L70.7995 34.2963V34.3263C70.8595 34.3863 70.8795 34.4163 70.9095 34.4963C70.9395 34.5563 70.9395 34.6063 70.9695 34.6663V44.8663H69.8395V36.0863L61.2695 44.8663H59.7095L69.0795 35.2563H59.5195V34.1463H69.0795L59.5195 24.5663V23.0063L69.0795 13.4263H59.5195V12.3163H69.0795L59.5195 2.50633V1.16633C59.6595 1.16633 59.7995 1.22633 59.9195 1.33633L69.8495 11.5063V0.486328H70.9795V12.8963C70.9795 12.9563 70.9495 13.0063 70.9195 13.0663V13.0963C70.8895 13.1863 70.8595 13.2363 70.8095 13.2963L60.8795 23.2463H72.9895L79.5495 16.6763V7.17633C79.5495 6.86633 79.7995 6.60633 80.0895 6.60633H89.5995L95.7095 0.486328H97.6895L103.8 6.60633H113.28C113.59 6.60633 113.85 6.86633 113.85 7.17633V16.6663L120.41 23.2363H132.52L122.59 13.2863C122.53 13.2263 122.51 13.1763 122.48 13.0863C122.45 13.0263 122.42 12.9463 122.42 12.8863V0.486328H123.55V11.5063L133.48 1.33633C133.56 1.22633 133.73 1.16633 133.88 1.16633V2.52633L124.32 12.3363H133.88V13.4463H124.32L133.88 23.0263V24.5863L124.32 34.1663H133.88V35.2763H124.32L133.68 44.8863H132.12L123.55 36.1063V44.8863H122.42L122.4 44.8663ZM79.5395 29.3363V18.2563L73.9895 23.7863L79.5395 29.3363ZM96.6795 1.08633L91.1595 6.61633H102.19L96.6695 1.08633H96.6795ZM112.72 16.9263V7.73633H80.6395V39.8463H112.72V16.9163V16.9263ZM113.82 18.2563V29.3363L119.37 23.7863L113.82 18.2563Z" fill="#CA9762"/>
<path d="M133.86 1.16625V2.52625L133.46 2.09625C133.35 2.00625 133.29 1.86625 133.29 1.72625C133.29 1.55625 133.35 1.41625 133.46 1.32625C133.57 1.21625 133.71 1.15625 133.86 1.15625V1.16625ZM133.86 12.3363V13.4462C133.55 13.4462 133.29 13.2163 133.29 12.9062C133.29 12.5962 133.54 12.3363 133.86 12.3363ZM133.86 23.0163V24.5763L133.46 24.1763C133.4 24.1462 133.35 24.0662 133.32 24.0063C133.29 23.9463 133.29 23.8663 133.29 23.7763C133.29 23.7163 133.29 23.6362 133.32 23.5763C133.35 23.4862 133.4 23.4362 133.46 23.3762L133.86 23.0063V23.0163ZM133.86 34.1562V35.2663C133.55 35.2663 133.29 35.0063 133.29 34.6963C133.29 34.3862 133.54 34.1562 133.86 34.1562Z" fill="#CA9762"/>
<path d="M25.9501 14.5162L22.3601 10.9162L18.7401 14.5162C18.6301 14.6262 18.4901 14.6862 18.3401 14.6862H14.0401L22.3601 23.0162L30.6501 14.6862H26.3501C26.2101 14.6862 26.0701 14.6262 25.9501 14.5162ZM31.4401 15.4762L23.1201 23.7762L31.4401 32.1062V27.7962C31.4401 27.6562 31.5001 27.5162 31.6101 27.3962L35.2001 23.7662L31.6101 20.1662C31.5001 20.0562 31.4401 19.9062 31.4401 19.7662V15.4562V15.4762ZM26.3501 32.9062H30.6501L22.3601 24.5762L14.0401 32.9062H18.3401C18.4801 32.9062 18.6201 32.9662 18.7401 33.0762L22.3601 36.6762L25.9501 33.0762C26.0601 32.9662 26.2001 32.9062 26.3501 32.9062ZM13.2501 32.1162L21.5701 23.7862L13.2501 15.4862V19.7962C13.2501 19.9362 13.1901 20.0762 13.0801 20.1962L9.49013 23.7962L13.0801 27.4262C13.1901 27.5362 13.2501 27.6862 13.2501 27.8262V32.1362V32.1162ZM32.5701 14.1262V19.5662L36.3901 23.4162C36.6201 23.6162 36.6201 23.9862 36.3901 24.1862L32.5701 28.0362V33.4762C32.5701 33.5362 32.5401 33.6162 32.5101 33.6762C32.4501 33.8162 32.3401 33.9362 32.2001 33.9862C32.1401 34.0162 32.0601 34.0162 32.0001 34.0162H26.5701L22.7201 37.8662C22.5201 38.0962 22.1501 38.0962 21.9601 37.8662L18.1101 34.0162H12.6801C12.6201 34.0162 12.5401 34.0162 12.4801 33.9862C12.3401 33.9262 12.2301 33.8162 12.1701 33.6762C12.1401 33.6162 12.1401 33.5362 12.1401 33.4762V28.0362L8.29012 24.1862C8.18012 24.0962 8.12012 23.9262 8.12012 23.7862C8.12012 23.6462 8.18012 23.5062 8.29012 23.4162L12.1401 19.5662V14.1262C12.1401 14.0662 12.1401 13.9862 12.1701 13.9262C12.2301 13.7862 12.3401 13.6662 12.4801 13.6162C12.5401 13.5862 12.6201 13.5562 12.6801 13.5562H18.1101L21.9601 9.72621C22.1601 9.49621 22.5301 9.49621 22.7201 9.72621L26.5701 13.5562H32.0001C32.0601 13.5562 32.1401 13.5862 32.2001 13.6162C32.3401 13.6762 32.4501 13.7862 32.5101 13.9262C32.5401 13.9862 32.5701 14.0662 32.5701 14.1262Z" fill="#CA9762"/>
<path d="M48.0797 44.8663V34.6963C48.0797 34.6363 48.0797 34.5563 48.1097 34.4963C48.1397 34.4063 48.1897 34.3563 48.2497 34.2963L58.1797 24.3463H46.0397L39.4997 30.9163V40.4063C39.4997 40.7163 39.2497 40.9763 38.9297 40.9763H29.4497L25.5497 44.8563H23.9897L27.8697 40.9763H16.8097L20.6897 44.8563H19.1297L15.2297 40.9763H5.74969C5.4397 40.9763 5.17969 40.7163 5.17969 40.4063V30.9163L-1.36031 24.3463H-13.5003L-3.5403 34.2963V34.3263C-3.4803 34.3863 -3.4603 34.4163 -3.4303 34.4963C-3.4003 34.5563 -3.4003 34.6063 -3.4003 34.6663V44.8663H-4.50031V36.0863L-13.0703 44.8663H-14.6303L-5.2603 35.2563H-14.8203V34.1463H-5.2903L-14.8203 24.5663V23.0063L-5.2903 13.4263H-14.8203V12.3163H-5.2603L-14.8203 2.50633V1.16633C-14.6803 1.16633 -14.5403 1.22633 -14.4203 1.33633L-4.49031 11.5063V0.486328H-3.3903V12.8963C-3.3903 12.9563 -3.3903 13.0063 -3.4203 13.0663V13.0963C-3.4503 13.1863 -3.5003 13.2363 -3.5303 13.2963H-3.5603L-13.4903 23.2463H-1.35031L5.1897 16.6763V7.17633C5.1897 6.86633 5.43969 6.60633 5.75969 6.60633H15.2397L21.3797 0.486328H23.3297L29.4697 6.60633H38.9497C39.2597 6.60633 39.5197 6.86633 39.5197 7.17633V16.6663L46.0597 23.2363H58.1997L48.2697 13.2863C48.2097 13.2263 48.1597 13.1763 48.1297 13.0863C48.0997 13.0263 48.0997 12.9463 48.0997 12.8863V0.486328H49.1997V11.5063L59.1297 1.33633C59.2397 1.22633 59.3797 1.16633 59.5297 1.16633V2.52633L49.9697 12.3363H59.5297V13.4463H49.9997L59.5297 23.0263V24.5863L49.9997 34.1663H59.5297V35.2763H49.9697L59.3397 44.8863H57.7797L49.2097 36.1063V44.8863H48.1097L48.0797 44.8663ZM5.1897 29.3363V18.2563L-0.330307 23.7863L5.1897 29.3363ZM22.3597 1.08633L16.8097 6.61633H27.8697L22.3497 1.08633H22.3597ZM38.3697 16.9263V7.73633H6.30969V39.8463H38.3697V16.9163V16.9263ZM39.4997 18.2563V29.3363L45.0197 23.7863L39.4997 18.2563Z" fill="#CA9762"/>
<path d="M59.5097 1.16625V2.52625L59.1097 2.09625C58.9997 2.00625 58.9697 1.86625 58.9697 1.72625C58.9697 1.55625 59.0297 1.41625 59.1397 1.32625C59.2197 1.21625 59.3697 1.15625 59.5097 1.15625V1.16625ZM59.5097 12.3363V13.4462C59.1997 13.4462 58.9697 13.2163 58.9697 12.9062C58.9697 12.5962 59.1997 12.3363 59.5097 12.3363ZM59.5097 23.0163V24.5763L59.1097 24.1763C59.1097 24.1763 59.0297 24.0662 58.9997 24.0063C58.9697 23.9463 58.9697 23.8663 58.9697 23.7763C58.9697 23.7163 58.9697 23.6362 58.9997 23.5763C59.0297 23.4862 59.0797 23.4362 59.1097 23.3762L59.5097 23.0063V23.0163ZM59.5097 34.1562V35.2663C59.1997 35.2663 58.9697 35.0063 58.9697 34.6963C58.9697 34.3862 59.1997 34.1562 59.5097 34.1562Z" fill="#CA9762"/>
<path d="M208.19 35.256V34.146C207.88 34.146 207.62 34.376 207.62 34.686C207.62 34.996 207.87 35.256 208.19 35.256ZM208.19 24.576V23.016L207.79 23.416C207.71 23.506 207.62 23.646 207.62 23.786C207.62 23.956 207.7 24.096 207.79 24.186L208.19 24.586V24.576ZM208.19 13.436V12.326C207.88 12.326 207.62 12.586 207.62 12.896C207.62 13.206 207.87 13.436 208.19 13.436ZM208.19 2.52602V1.16602C208.05 1.16602 207.91 1.22602 207.79 1.33602C207.59 1.53602 207.56 1.90602 207.79 2.10602L208.19 2.53602V2.52602Z" fill="#CA9762"/>
<path d="M167.42 14.5162L171.01 10.9162L174.63 14.5162C174.74 14.6262 174.88 14.6862 175.03 14.6862H179.33L171.01 23.0162L162.72 14.6862H167.02C167.16 14.6862 167.3 14.6262 167.42 14.5162ZM161.93 15.4762L170.25 23.7762L161.93 32.1062V27.7962C161.93 27.6562 161.87 27.5162 161.76 27.3962L158.14 23.7662L161.76 20.1662C161.87 20.0562 161.93 19.9062 161.93 19.7662V15.4562V15.4762ZM167.02 32.9062H162.72L171.01 24.5762L179.33 32.9062H175.03C174.89 32.9062 174.75 32.9662 174.63 33.0762L171.01 36.6762L167.42 33.0762C167.31 32.9662 167.17 32.9062 167.02 32.9062ZM180.12 32.1162L171.8 23.7862L180.12 15.4862V19.7962C180.12 19.9362 180.18 20.0762 180.29 20.1962L183.88 23.7962L180.29 27.4262C180.18 27.5362 180.12 27.6862 180.12 27.8262V32.1362V32.1162ZM160.8 14.1262V19.5662L156.98 23.4162C156.75 23.6162 156.75 23.9862 156.98 24.1862L160.8 28.0362V33.4762C160.8 33.5362 160.83 33.6162 160.86 33.6762C160.92 33.8162 161.03 33.9362 161.17 33.9862C161.23 34.0162 161.28 34.0162 161.37 34.0162H166.8L170.62 37.8662C170.85 38.0962 171.21 38.0962 171.41 37.8662L175.26 34.0162H180.69C180.75 34.0162 180.83 34.0162 180.89 33.9862C181.03 33.9262 181.14 33.8162 181.2 33.6762C181.23 33.6162 181.23 33.5362 181.23 33.4762V28.0362L185.08 24.1862C185.19 24.0962 185.25 23.9262 185.25 23.7862C185.25 23.6462 185.19 23.5062 185.08 23.4162L181.23 19.5662V14.1262C181.23 14.0662 181.23 13.9862 181.2 13.9262C181.14 13.7862 181.03 13.6662 180.89 13.6162C180.83 13.5862 180.75 13.5562 180.69 13.5562H175.26L171.41 9.72621C171.21 9.49621 170.84 9.49621 170.62 9.72621L166.8 13.5562H161.37C161.29 13.5562 161.23 13.5862 161.17 13.6162C161.03 13.6762 160.92 13.7862 160.86 13.9262C160.83 13.9862 160.8 14.0662 160.8 14.1262Z" fill="#CA9762"/>
<path d="M145.29 44.8663V34.6963C145.29 34.6363 145.29 34.5563 145.26 34.4963C145.23 34.4063 145.18 34.3563 145.12 34.2963L135.19 24.3463H147.33L153.87 30.9163V40.4063C153.87 40.7163 154.12 40.9763 154.44 40.9763H163.92L167.82 44.8563H169.38L165.5 40.9763H176.56L172.66 44.8563H174.24L178.12 40.9763H187.63C187.94 40.9763 188.2 40.7163 188.2 40.4063V30.9163L194.74 24.3463H206.88L196.92 34.2963V34.3263C196.86 34.3863 196.84 34.4163 196.81 34.4963C196.78 34.5563 196.78 34.6063 196.78 34.6663V44.8663H197.88V36.0863L206.45 44.8663H208.01L198.65 35.2563H208.21V34.1463H198.68L208.21 24.5663V23.0063L198.68 13.4263H208.21V12.3163H198.65L208.21 2.50633V1.16633C208.07 1.16633 207.93 1.22633 207.81 1.33633L197.88 11.5063V0.486328H196.78V12.8963C196.78 12.9563 196.78 13.0063 196.81 13.0663V13.0963C196.84 13.1863 196.89 13.2363 196.92 13.2963H196.95L206.88 23.2463H194.74L188.2 16.6763V7.17633C188.2 6.86633 187.95 6.60633 187.63 6.60633H178.12L172.01 0.486328H170.03L163.92 6.60633H154.44C154.13 6.60633 153.87 6.86633 153.87 7.17633V16.6663L147.33 23.2363H135.19L145.12 13.2863C145.18 13.2263 145.23 13.1763 145.26 13.0863C145.29 13.0263 145.29 12.9463 145.29 12.8863V0.486328H144.19V11.5063L134.26 1.33633C134.15 1.22633 134.01 1.16633 133.86 1.16633V2.52633L143.42 12.3363H133.86V13.4463H143.39L133.86 23.0263V24.5863L143.39 34.1663H133.86V35.2763H143.42L134.06 44.8863H135.62L144.19 36.1063V44.8863H145.29V44.8663ZM188.18 29.3363V18.2563L193.7 23.7863L188.18 29.3363ZM171.01 1.08633L176.56 6.61633H165.5L171.02 1.08633H171.01ZM155 16.9263V7.73633H187.06V39.8463H155V16.9163V16.9263ZM153.87 18.2563V29.3363L148.35 23.7863L153.87 18.2563Z" fill="#CA9762"/>
<path d="M133.86 1.16625V2.52625L134.26 2.09625C134.37 2.00625 134.4 1.86625 134.4 1.72625C134.4 1.55625 134.34 1.41625 134.23 1.32625C134.15 1.21625 134 1.15625 133.86 1.15625V1.16625ZM133.86 12.3363V13.4462C134.17 13.4462 134.4 13.2163 134.4 12.9062C134.4 12.5962 134.17 12.3363 133.86 12.3363ZM133.86 23.0163V24.5763L134.26 24.1763C134.26 24.1763 134.34 24.0662 134.37 24.0063C134.4 23.9463 134.4 23.8663 134.4 23.7763C134.4 23.7163 134.4 23.6362 134.37 23.5763C134.34 23.4862 134.29 23.4362 134.26 23.3762L133.86 23.0063V23.0163ZM133.86 34.1562V35.2663C134.17 35.2663 134.4 35.0063 134.4 34.6963C134.4 34.3862 134.17 34.1562 133.86 34.1562Z" fill="#CA9762"/>
<path d="M282.51 35.256V34.146C282.23 34.146 281.97 34.376 281.97 34.686C281.97 34.996 282.22 35.256 282.51 35.256ZM282.51 24.576V23.016L282.14 23.416C282.03 23.506 281.97 23.646 281.97 23.786C281.97 23.956 282.03 24.096 282.14 24.186L282.51 24.586V24.576ZM282.51 13.436V12.326C282.23 12.326 281.97 12.586 281.97 12.896C281.97 13.206 282.22 13.436 282.51 13.436ZM282.51 2.52602V1.16602C282.37 1.16602 282.26 1.22602 282.14 1.33602C281.91 1.53602 281.91 1.90602 282.11 2.10602L282.51 2.53602V2.52602Z" fill="#CA9762"/>
<path d="M241.74 14.5162L245.36 10.9162L248.95 14.5162C249.06 14.6262 249.2 14.6862 249.35 14.6862H253.68L245.36 23.0162L237.04 14.6862H241.34C241.51 14.6862 241.65 14.6262 241.74 14.5162ZM236.25 15.4762L244.57 23.7762L236.25 32.1062V27.7962C236.25 27.6562 236.19 27.5162 236.08 27.3962L232.49 23.7662L236.08 20.1662C236.19 20.0562 236.25 19.9062 236.25 19.7662V15.4562V15.4762ZM241.34 32.9062H237.04L245.36 24.5762L253.68 32.9062H249.35C249.21 32.9062 249.07 32.9662 248.95 33.0762L245.36 36.6762L241.74 33.0762C241.66 32.9662 241.51 32.9062 241.34 32.9062ZM254.44 32.1162L246.15 23.7862L254.44 15.4862V19.7962C254.44 19.9362 254.5 20.0762 254.61 20.1962L258.23 23.7962L254.61 27.4262C254.5 27.5362 254.44 27.6862 254.44 27.8262V32.1362V32.1162ZM235.14 14.1262V19.5662L231.29 23.4162C231.06 23.6162 231.06 23.9862 231.29 24.1862L235.14 28.0362V33.4762C235.14 33.5362 235.14 33.6162 235.17 33.6762C235.23 33.8162 235.34 33.9362 235.48 33.9862C235.54 34.0162 235.62 34.0162 235.68 34.0162H241.11L244.96 37.8662C245.19 38.0962 245.53 38.0962 245.75 37.8662L249.57 34.0162H255C255.08 34.0162 255.14 34.0162 255.23 33.9862C255.34 33.9262 255.46 33.8162 255.51 33.6762C255.54 33.6162 255.57 33.5362 255.57 33.4762V28.0362L259.39 24.1862C259.5 24.0962 259.56 23.9262 259.56 23.7862C259.56 23.6462 259.5 23.5062 259.39 23.4162L255.57 19.5662V14.1262C255.57 14.0662 255.54 13.9862 255.51 13.9262C255.45 13.7862 255.34 13.6662 255.23 13.6162C255.15 13.5862 255.09 13.5562 255 13.5562H249.57L245.75 9.72621C245.52 9.49621 245.18 9.49621 244.96 9.72621L241.11 13.5562H235.68C235.62 13.5562 235.54 13.5862 235.48 13.6162C235.34 13.6762 235.23 13.7862 235.17 13.9262C235.14 13.9862 235.14 14.0662 235.14 14.1262Z" fill="#CA9762"/>
<path d="M219.64 44.8663V34.6963C219.64 34.6363 219.61 34.5563 219.58 34.4963C219.55 34.4063 219.52 34.3563 219.47 34.2963L209.54 24.3463H221.65L228.21 30.9163V40.4063C228.21 40.7163 228.44 40.9763 228.75 40.9763H238.26L242.14 44.8563H243.72L239.82 40.9763H250.88L247 44.8563H248.56L252.46 40.9763H261.94C262.25 40.9763 262.51 40.7163 262.51 40.4063V30.9163L269.05 24.3463H281.19L271.26 34.2963C271.26 34.2963 271.26 34.3263 271.23 34.3263C271.2 34.3863 271.15 34.4163 271.15 34.4963H271.12C271.12 34.5563 271.09 34.6063 271.09 34.6663V44.8663H272.19V36.0863L280.76 44.8663H282.32L272.95 35.2563H282.51V34.1463H272.98L282.51 24.5663V23.0063L272.98 13.4263H282.51V12.3163H272.95L282.51 2.50633V1.16633C282.37 1.16633 282.23 1.22633 282.11 1.33633L272.18 11.5063V0.486328H271.08V12.8963C271.08 12.9563 271.11 13.0063 271.11 13.0663V13.0963H271.14C271.17 13.1863 271.2 13.2363 271.25 13.2963L281.18 23.2463H269.04L262.5 16.6763V7.17633C262.5 6.86633 262.25 6.60633 261.93 6.60633H252.45L246.34 0.486328H244.36L238.25 6.60633H228.74C228.43 6.60633 228.2 6.86633 228.2 7.17633V16.6663L221.64 23.2363H209.53L219.46 13.2863C219.52 13.2263 219.54 13.1763 219.57 13.0863C219.6 13.0263 219.63 12.9463 219.63 12.8863V0.486328H218.5V11.5063L208.57 1.33633C208.46 1.22633 208.32 1.16633 208.17 1.16633V2.52633L217.73 12.3363H208.17V13.4463H217.7L208.17 23.0263V24.5863L217.7 34.1663H208.17V35.2763H217.73L208.36 44.8863H209.92L218.49 36.1063V44.8863H219.62L219.64 44.8663ZM262.5 29.3363V18.2563L268.02 23.7863L262.5 29.3363ZM245.36 1.08633L250.88 6.61633H239.82L245.37 1.08633H245.36ZM229.32 16.9263V7.73633H261.4V39.8463H229.32V16.9163V16.9263ZM228.22 18.2563V29.3363L222.67 23.7863L228.22 18.2563Z" fill="#CA9762"/>
<path d="M208.19 1.16625V2.52625L208.59 2.09625C208.7 2.00625 208.76 1.86625 208.76 1.72625C208.76 1.55625 208.7 1.41625 208.59 1.32625C208.48 1.21625 208.34 1.15625 208.19 1.15625V1.16625ZM208.19 12.3363V13.4462C208.5 13.4462 208.76 13.2163 208.76 12.9062C208.76 12.5962 208.51 12.3363 208.19 12.3363ZM208.19 23.0163V24.5763L208.59 24.1763C208.65 24.1462 208.67 24.0662 208.7 24.0063C208.73 23.9463 208.76 23.8663 208.76 23.7763C208.76 23.7163 208.73 23.6362 208.7 23.5763C208.67 23.4862 208.64 23.4362 208.59 23.3762L208.19 23.0063V23.0163ZM208.19 34.1562V35.2663C208.5 35.2663 208.76 35.0063 208.76 34.6963C208.76 34.3862 208.51 34.1562 208.19 34.1562Z" fill="#CA9762"/>
<path d="M316.1 14.5162L319.69 10.9162L323.31 14.5162C323.39 14.6262 323.54 14.6862 323.71 14.6862H328.01L319.69 23.0162L311.37 14.6862H315.7C315.84 14.6862 315.98 14.6262 316.1 14.5162ZM310.58 15.4762L318.9 23.7762L310.58 32.1062V27.7962C310.58 27.6562 310.52 27.5162 310.44 27.3962L306.82 23.7662L310.44 20.1662C310.52 20.0562 310.58 19.9062 310.58 19.7662V15.4562V15.4762ZM315.7 32.9062H311.37L319.69 24.5762L328.01 32.9062H323.71C323.54 32.9062 323.4 32.9662 323.31 33.0762L319.69 36.6762L316.1 33.0762C315.99 32.9662 315.85 32.9062 315.7 32.9062ZM328.8 32.1162L320.48 23.7862L328.8 15.4862V19.7962C328.8 19.9362 328.86 20.0762 328.97 20.1962L332.56 23.7962L328.97 27.4262C328.86 27.5362 328.8 27.6862 328.8 27.8262V32.1362V32.1162ZM309.48 14.1262V19.5662L305.63 23.4162C305.43 23.6162 305.43 23.9862 305.63 24.1862L309.48 28.0362V33.4762C309.48 33.5362 309.51 33.6162 309.54 33.6762C309.6 33.8162 309.68 33.9362 309.82 33.9862C309.9 34.0162 309.96 34.0162 310.05 34.0162H315.48L319.3 37.8662C319.53 38.0962 319.87 38.0962 320.09 37.8662L323.94 34.0162H329.34C329.42 34.0162 329.51 34.0162 329.57 33.9862C329.71 33.9262 329.82 33.8162 329.88 33.6762C329.91 33.6162 329.91 33.5362 329.91 33.4762V28.0362L333.76 24.1862C333.87 24.0962 333.93 23.9262 333.93 23.7862C333.93 23.6462 333.87 23.5062 333.76 23.4162L329.91 19.5662V14.1262C329.91 14.0662 329.91 13.9862 329.88 13.9262C329.82 13.7862 329.71 13.6662 329.57 13.6162C329.51 13.5862 329.43 13.5562 329.34 13.5562H323.94L320.09 9.72621C319.86 9.49621 319.52 9.49621 319.3 9.72621L315.48 13.5562H310.05C309.97 13.5562 309.91 13.5862 309.82 13.6162C309.68 13.6762 309.59 13.7862 309.54 13.9262C309.51 13.9862 309.48 14.0662 309.48 14.1262Z" fill="#CA9762"/>
<path d="M293.97 44.8663V34.6963C293.97 34.6363 293.94 34.5563 293.91 34.4963C293.88 34.4063 293.85 34.3563 293.8 34.2963L283.87 24.3463H296.01L302.55 30.9163V40.4063C302.55 40.7163 302.8 40.9763 303.12 40.9763H312.6L316.48 44.8563H318.06L314.18 40.9763H325.24L321.34 44.8563H322.92L326.8 40.9763H336.31C336.62 40.9763 336.85 40.7163 336.85 40.4063V30.9163L343.41 24.3463H355.52L345.59 34.2963V34.3263C345.53 34.3863 345.51 34.4163 345.48 34.4963C345.45 34.5563 345.45 34.6063 345.45 34.6663C345.45 34.6963 345.42 34.6963 345.42 34.6963V44.8663H346.55V36.0863L355.12 44.8663H356.68L347.32 35.2563H356.88V34.1463H347.35L356.88 24.5663V23.0063L347.35 13.4263H356.88V12.3163H347.32L356.88 2.50633V1.16633C356.74 1.16633 356.6 1.22633 356.48 1.33633L346.55 11.5063V0.486328H345.42V12.8963C345.42 12.9563 345.45 13.0063 345.48 13.0663V13.0963C345.51 13.1863 345.54 13.2363 345.59 13.2963L355.52 23.2463H343.41L336.85 16.6763V7.17633C336.85 6.86633 336.62 6.60633 336.31 6.60633H326.8L320.69 0.486328H318.71L312.6 6.60633H303.12C302.81 6.60633 302.55 6.86633 302.55 7.17633V16.6663L296.01 23.2363H283.87L293.8 13.2863C293.86 13.2263 293.88 13.1763 293.91 13.0863C293.94 13.0263 293.97 12.9463 293.97 12.8863V0.486328H292.87V11.5063L282.94 1.33633C282.83 1.22633 282.69 1.16633 282.52 1.16633V2.52633L292.11 12.3363H282.52V13.4463H292.08L282.52 23.0263V24.5863L292.08 34.1663H282.52V35.2763H292.08L282.71 44.8863H284.27L292.87 36.1063V44.8863H293.97V44.8663ZM336.83 29.3363V18.2563L342.38 23.7863L336.83 29.3363ZM319.69 1.08633L325.24 6.61633H314.18L319.7 1.08633H319.69ZM303.65 16.9263V7.73633H335.73V39.8463H303.65V16.9163V16.9263ZM302.55 18.2563V29.3363L297.03 23.7863L302.55 18.2563Z" fill="#CA9762"/>
<path d="M282.51 1.16625V2.52625L282.93 2.09625C283.01 2.00625 283.07 1.86625 283.07 1.72625C283.07 1.55625 283.01 1.41625 282.9 1.32625C282.79 1.21625 282.65 1.15625 282.5 1.15625L282.51 1.16625ZM282.51 12.3363V13.4462C282.82 13.4462 283.08 13.2163 283.08 12.9062C283.08 12.5962 282.83 12.3363 282.51 12.3363ZM282.51 23.0163V24.5763L282.91 24.1763C282.97 24.1462 283.02 24.0662 283.05 24.0063C283.08 23.9463 283.08 23.8663 283.08 23.7763C283.08 23.7163 283.08 23.6362 283.05 23.5763C283.02 23.4862 282.97 23.4362 282.91 23.3762L282.51 23.0063V23.0163ZM282.51 34.1562V35.2663C282.82 35.2663 283.08 35.0063 283.08 34.6963C283.08 34.3862 282.83 34.1562 282.51 34.1562Z" fill="#CA9762"/>
</g>
<defs>
<clipPath id="clip0_38_823">
<rect width="594.15" height="44.38" fill="white" transform="translate(-163.5 0.486328)"/>
</clipPath>
</defs>
</svg>
