<svg width="92" height="94" viewBox="0 0 92 94" fill="none" xmlns="http://www.w3.org/2000/svg">
<path d="M84.1965 17.7045C84.1965 17.7045 84.8716 10.7887 83.2194 9.11877M83.2194 9.11877C81.5577 7.43899 74.7271 8.13692 74.7271 8.13692M83.2194 9.11877L72.833 19.618" stroke="#CA9762" stroke-width="3" stroke-linecap="round"/>
<path d="M84.1965 75.7816C84.1965 75.7816 84.8716 82.6973 83.2194 84.3675M83.2194 84.3675C81.5577 86.0473 74.7271 85.3494 74.7271 85.3494M83.2194 84.3675L72.833 73.8682" stroke="#CA9762" stroke-width="3" stroke-linecap="round"/>
<path d="M8.78049 9.11873L19.167 19.618M8.78049 9.11873C10.4422 7.439 17.273 8.13692 17.273 8.13692M8.78049 9.11873C7.12852 10.7887 7.80349 17.7045 7.80349 17.7045" stroke="#CA9762" stroke-width="3" stroke-linecap="round"/>
<path d="M8.78049 84.3675L19.167 73.8682M8.78049 84.3675C10.4422 86.0473 17.273 85.3494 17.273 85.3494M8.78049 84.3675C7.12852 82.6977 7.80349 75.782 7.80349 75.782" stroke="#CA9762" stroke-width="3" stroke-linecap="round"/>
<path d="M72.8337 46.7432C72.8337 61.7239 60.82 73.8682 46.0003 73.8682C31.1807 73.8682 19.167 61.7239 19.167 46.7432C19.167 31.7625 31.1807 19.6182 46.0003 19.6182C60.82 19.6182 72.8337 31.7625 72.8337 46.7432Z" stroke="#CA9762" stroke-width="3"/>
<path d="M45.67 36.2856C41.4357 36.2856 38.333 38.7739 38.333 41.6619C38.333 44.5495 40.3336 46.3553 45.9997 46.3553C52.2411 46.3553 53.6663 49.2321 53.6663 52.1197C53.6663 55.0078 50.9382 57.2886 45.67 57.2886M45.67 36.2856C49.0081 36.2856 50.7726 37.4669 52.166 39.0571M45.67 36.2856V33.0142M45.67 57.2886C42.3319 57.2886 41.034 56.6221 39.1955 54.9403M45.67 57.2886V60.3398" stroke="#CA9762" stroke-width="3" stroke-linecap="round"/>
</svg>
