<svg width="92" height="93" viewBox="0 0 92 93" fill="none" xmlns="http://www.w3.org/2000/svg">
<path d="M46 7.90967H23C13.4857 7.90967 11.5 9.89533 11.5 19.4097V84.5763H57.5V19.4097C57.5 9.89533 55.5143 7.90967 46 7.90967Z" stroke="#CA9762" stroke-width="3"/>
<path d="M69 30.9097H57.5V84.5763H80.5V42.4097C80.5 32.8953 78.5143 30.9097 69 30.9097Z" stroke="#CA9762" stroke-width="3"/>
<path d="M30.667 23.2432H38.3337M30.667 34.7432H38.3337M30.667 46.2432H38.3337" stroke="#CA9762" stroke-width="3" stroke-linecap="round"/>
<path d="M44.0837 84.5767V69.2433C44.0837 65.6293 44.0837 63.8222 42.9609 62.6994C41.8381 61.5767 40.0311 61.5767 36.417 61.5767H32.5837C28.9696 61.5767 27.1625 61.5767 26.0397 62.6994C24.917 63.8222 24.917 65.6293 24.917 69.2433V84.5767" stroke="#CA9762" stroke-width="3"/>
</svg>
