<svg width="60" height="60" viewBox="0 0 60 60" fill="none" xmlns="http://www.w3.org/2000/svg">
<g clip-path="url(#clip0_38_8761)">
<path d="M59.9769 23.7206C59.8222 22.038 58.9339 20.4872 57.6014 19.5738C57.196 19.2967 56.651 19.4139 56.3839 19.8364C56.1167 20.2589 56.2292 20.8267 56.6358 21.1051C57.5276 21.7168 58.1229 22.7596 58.2272 23.8965C58.3315 25.0296 57.9507 26.0968 57.1561 26.904L46.5094 37.7178C46.302 37.9278 46.2083 38.2319 46.2563 38.5286L48.7689 53.7969C49.0044 55.2305 48.4724 56.5956 47.3438 57.4504C46.2153 58.3051 44.8043 58.4114 43.5691 57.7349L30.4087 50.5257C30.1533 50.3853 29.8474 50.3853 29.5907 50.5257L16.4303 57.7349C15.1952 58.4114 13.7842 58.3051 12.6556 57.4504C11.5271 56.5956 10.9939 55.2305 11.2306 53.7969L13.7432 38.5286C13.7924 38.2319 13.6975 37.9278 13.49 37.7178L2.84452 26.9027C1.84606 25.888 1.50621 24.4569 1.93747 23.0747C2.36873 21.6924 3.45039 20.7424 4.83089 20.5324L19.5441 18.3051C19.83 18.2624 20.0773 18.0744 20.2062 17.8045L26.7864 3.91233C27.404 2.60944 28.6052 1.83161 29.9997 1.83161C31.3943 1.83161 32.5967 2.60944 33.2143 3.91233L36.8835 11.6601C36.7686 12.0117 36.7077 12.3866 36.7077 12.7725C36.7077 13.8787 37.1999 14.8874 38.0565 15.5394C38.5218 15.8935 38.755 16.4809 38.6659 17.0731C38.5019 18.1659 38.8394 19.2417 39.5894 20.0244C40.3406 20.8071 41.373 21.1576 42.4219 20.9866C42.9914 20.8938 43.5551 21.138 43.8938 21.6216C44.5196 22.5154 45.4875 23.027 46.5493 23.027C47.611 23.027 48.579 22.5142 49.2048 21.6216C49.5447 21.1368 50.1083 20.8938 50.6767 20.9866C51.7256 21.1576 52.758 20.8059 53.5092 20.0244C54.2604 19.2417 54.5967 18.1659 54.4326 17.0731C54.3436 16.4809 54.578 15.8923 55.042 15.5394C55.8999 14.8874 56.3909 13.8787 56.3909 12.7725C56.3909 11.6662 55.8987 10.6575 55.042 10.0055C54.5768 9.65138 54.3436 9.06404 54.4326 8.47182C54.5967 7.37896 54.2592 6.30319 53.5092 5.52048C52.758 4.73777 51.7256 4.38733 50.6767 4.55828C50.1083 4.65108 49.5435 4.40686 49.2048 3.92332C48.579 3.02949 47.611 2.51786 46.5493 2.51786C45.4875 2.51786 44.5196 3.03071 43.8938 3.92332C43.5539 4.40808 42.9902 4.65108 42.4219 4.55828C41.373 4.38733 40.3406 4.739 39.5894 5.52048C38.8382 6.30319 38.5019 7.37896 38.6659 8.47182C38.7538 9.06282 38.5218 9.65016 38.0589 10.0043L34.7893 3.10275C33.8834 1.18811 32.0482 0 29.9997 0C27.9524 0 26.1161 1.18811 25.2102 3.10275L18.8351 16.5627L4.57893 18.7203C2.55154 19.0268 0.899168 20.4787 0.266343 22.5093C-0.366481 24.5387 0.151497 26.7257 1.61754 28.2154L11.9338 38.6935L9.49973 53.4868C9.15285 55.5907 9.96732 57.6775 11.6244 58.9316C12.5607 59.6398 13.6553 60 14.7592 60C15.6077 60 16.462 59.7863 17.2507 59.354L30.0021 52.3683L42.7535 59.354C44.5664 60.3468 46.7227 60.1856 48.3786 58.9303C50.0357 57.6763 50.8501 55.5895 50.5033 53.4856L48.0692 38.6922L58.3854 28.2142C59.5515 27.0297 60.1327 25.3911 59.9792 23.7206H59.9769ZM39.0937 11.4854C40.0921 10.7259 40.5937 9.46334 40.4038 8.18976C40.3277 7.68057 40.4847 7.17993 40.8339 6.81605C41.1832 6.45216 41.6636 6.28854 42.1523 6.36791C43.3734 6.56572 44.5863 6.0431 45.3153 5.00275C45.6071 4.58636 46.0571 4.34825 46.5516 4.34825C47.0462 4.34825 47.4962 4.58636 47.788 5.00275C48.5169 6.0431 49.7286 6.56695 50.9509 6.36791C51.4396 6.28854 51.9201 6.45216 52.2693 6.81605C52.6185 7.17993 52.7756 7.68057 52.6994 8.18976C52.5084 9.46334 53.0111 10.7259 54.0096 11.4854C54.4092 11.7895 54.6377 12.2584 54.6377 12.7737C54.6377 13.289 54.4092 13.7579 54.0096 14.0619C53.0111 14.8214 52.5096 16.084 52.6994 17.3576C52.7756 17.8668 52.6185 18.3674 52.2693 18.7313C51.9201 19.0952 51.4396 19.2588 50.9509 19.1794C49.7298 18.9816 48.5169 19.5042 47.788 20.5446C47.4962 20.961 47.0462 21.1991 46.5516 21.1991C46.0571 21.1991 45.6071 20.961 45.3153 20.5446C44.6883 19.6496 43.7051 19.1379 42.6644 19.1379C42.4945 19.1379 42.3234 19.1514 42.1523 19.1794C41.6636 19.2588 41.1832 19.0952 40.8339 18.7313C40.4847 18.3674 40.3277 17.8668 40.4038 17.3576C40.5949 16.084 40.0921 14.8214 39.0937 14.0619C38.694 13.7579 38.4655 13.289 38.4655 12.7737C38.4655 12.2584 38.694 11.7895 39.0937 11.4854Z" fill="#CA9762"/>
<path d="M16.1125 28.8297C16.5977 28.8297 16.9915 28.4194 16.9915 27.9139V27.1556H17.7192C18.2044 27.1556 18.5981 26.7453 18.5981 26.2398C18.5981 25.7343 18.2044 25.324 17.7192 25.324H16.9915V24.5657C16.9915 24.0602 16.5977 23.6499 16.1125 23.6499C15.6274 23.6499 15.2336 24.0602 15.2336 24.5657V25.324H14.5059C14.0207 25.324 13.627 25.7343 13.627 26.2398C13.627 26.7453 14.0207 27.1556 14.5059 27.1556H15.2336V27.9139C15.2336 28.4194 15.6274 28.8297 16.1125 28.8297Z" fill="#CA9762"/>
<path d="M44.2962 27.9139V27.1556H45.0239C45.5091 27.1556 45.9028 26.7453 45.9028 26.2398C45.9028 25.7343 45.5091 25.324 45.0239 25.324H44.2962V24.5657C44.2962 24.0602 43.9024 23.6499 43.4172 23.6499C42.9321 23.6499 42.5383 24.0602 42.5383 24.5657V25.324H41.8106C41.3254 25.324 40.9316 25.7343 40.9316 26.2398C40.9316 26.7453 41.3254 27.1556 41.8106 27.1556H42.5383V27.9139C42.5383 28.4194 42.9321 28.8297 43.4172 28.8297C43.9024 28.8297 44.2962 28.4194 44.2962 27.9139Z" fill="#CA9762"/>
<path d="M19.5598 50.3854C20.045 50.3854 20.4387 49.9751 20.4387 49.4696V48.7113H21.1665C21.6517 48.7113 22.0454 48.301 22.0454 47.7955C22.0454 47.2899 21.6517 46.8797 21.1665 46.8797H20.4387V46.1214C20.4387 45.6158 20.045 45.2056 19.5598 45.2056C19.0746 45.2056 18.6809 45.6158 18.6809 46.1214V46.8797H17.9531C17.468 46.8797 17.0742 47.2899 17.0742 47.7955C17.0742 48.301 17.468 48.7113 17.9531 48.7113H18.6809V49.4696C18.6809 49.9751 19.0746 50.3854 19.5598 50.3854Z" fill="#CA9762"/>
<path d="M40.4397 50.3854C40.9249 50.3854 41.3186 49.9751 41.3186 49.4696V48.7113H42.0464C42.5315 48.7113 42.9253 48.301 42.9253 47.7955C42.9253 47.2899 42.5315 46.8797 42.0464 46.8797H41.3186V46.1214C41.3186 45.6158 40.9249 45.2056 40.4397 45.2056C39.9545 45.2056 39.5608 45.6158 39.5608 46.1214V46.8797H38.833C38.3479 46.8797 37.9541 47.2899 37.9541 47.7955C37.9541 48.301 38.3479 48.7113 38.833 48.7113H39.5608V49.4696C39.5608 49.9751 39.9545 50.3854 40.4397 50.3854Z" fill="#CA9762"/>
<path d="M30.4133 11.5647C29.9282 11.5647 29.5344 11.975 29.5344 12.4805V13.2388H28.8067C28.3215 13.2388 27.9277 13.6491 27.9277 14.1546C27.9277 14.6601 28.3215 15.0704 28.8067 15.0704H29.5344V15.8287C29.5344 16.3342 29.9282 16.7445 30.4133 16.7445C30.8985 16.7445 31.2923 16.3342 31.2923 15.8287V15.0704H32.02C32.5052 15.0704 32.8989 14.6601 32.8989 14.1546C32.8989 13.6491 32.5052 13.2388 32.02 13.2388H31.2923V12.4805C31.2923 11.975 30.8985 11.5647 30.4133 11.5647Z" fill="#CA9762"/>
<path d="M29.1875 46.656C29.2473 46.656 29.307 46.656 29.368 46.6536C34.0169 46.5559 37.8513 42.6924 38.0963 37.8618C38.292 34.4172 36.8037 31.4097 34.0122 29.6098C33.2481 29.1177 32.4102 28.7331 31.5207 28.4681C31.0543 28.3289 30.568 28.6097 30.4344 29.097C30.3008 29.5829 30.5715 30.0897 31.0379 30.2289C31.7727 30.4475 32.4629 30.7637 33.0887 31.1667C35.313 32.6014 36.499 35.0021 36.3419 37.758C36.145 41.6398 33.0665 44.7426 29.334 44.8207C27.2644 44.8623 25.2605 43.9648 23.8718 42.3652C23.7147 42.1844 23.6339 41.95 23.6456 41.7046C23.6573 41.4603 23.7593 41.2357 23.9339 41.0708C24.2936 40.7314 24.8503 40.7607 25.1761 41.1355C26.2296 42.3481 27.7308 43.0233 29.2988 42.9891C32.1184 42.9305 34.4423 40.5873 34.5888 37.6481C34.7095 35.5577 33.8481 33.8091 32.1653 32.7235C30.159 31.4292 27.3546 31.3682 25.3472 32.5721C25.0542 32.748 24.6851 32.7321 24.4073 32.5318C24.1296 32.3316 23.9854 31.9775 24.0405 31.6295L25.571 22.0062C25.6413 21.5629 26.0058 21.2405 26.4382 21.2405H34.1622C34.6474 21.2405 35.0411 21.6508 35.0411 22.1564C35.0411 22.6619 34.6474 23.0722 34.1622 23.0722H27.9289C27.4988 23.0722 27.132 23.3957 27.0617 23.8378L26.2519 28.9272C26.1722 29.4266 26.4968 29.898 26.9749 29.9798C27.4543 30.0628 27.9066 29.7246 27.9851 29.2264L28.673 24.9038H34.161C35.6154 24.9038 36.7978 23.6717 36.7978 22.1564C36.7978 20.641 35.6154 19.4089 34.161 19.4089H26.437C25.1409 19.4089 24.0475 20.376 23.8354 21.707L22.3049 31.3303C22.1397 32.3719 22.571 33.4354 23.4042 34.0374C24.2374 34.6394 25.3437 34.6883 26.2226 34.1608C27.6722 33.2913 29.7816 33.3426 31.2395 34.2816C32.3797 35.0167 32.9153 36.1133 32.8344 37.5273L32.8321 37.5614C32.7337 39.5384 31.1657 41.1184 29.2625 41.1587C28.2031 41.1783 27.1894 40.7253 26.4781 39.9071C25.5019 38.7837 23.8319 38.6983 22.7538 39.7142C22.2311 40.2063 21.9252 40.8816 21.8901 41.6142C21.8549 42.3468 22.0963 43.0502 22.5686 43.5948C24.2585 45.5387 26.6703 46.6548 29.1887 46.6548L29.1875 46.656Z" fill="#CA9762"/>
<path d="M44.7523 15.8654C44.9234 16.0437 45.1484 16.1341 45.3734 16.1341C45.5984 16.1341 45.8234 16.0449 45.9945 15.8654L50.6868 10.9762C51.0302 10.6185 51.0302 10.0385 50.6868 9.68068C50.3434 9.32291 49.7868 9.32291 49.4434 9.68068L45.3722 13.9227L43.6542 12.1326C43.3109 11.7748 42.7542 11.7748 42.4108 12.1326C42.0675 12.4904 42.0675 13.0704 42.4108 13.4282L44.7511 15.8654H44.7523Z" fill="#CA9762"/>
</g>
<defs>
<clipPath id="clip0_38_8761">
<rect width="60" height="60" fill="white"/>
</clipPath>
</defs>
</svg>
