<svg width="60" height="60" viewBox="0 0 60 60" fill="none" xmlns="http://www.w3.org/2000/svg">
<g clip-path="url(#clip0_38_8775)">
<path d="M13.7413 18.8209L5.74126 15.6209C5.12494 15.3751 4.42682 15.4509 3.87766 15.8234C3.3285 16.1958 2.99982 16.8164 3.00026 17.4799V55.4429L0.275263 58.3109C-0.000273526 58.6008 -0.0766371 59.0269 0.0811041 59.3944C0.238845 59.7618 0.600355 60 1.00026 59.9999H59.0003C59.4002 60 59.7617 59.7618 59.9194 59.3944C60.0772 59.0269 60.0008 58.6008 59.7253 58.3109L57.0003 55.4429V17.4799C57.0007 16.8164 56.672 16.1958 56.1229 15.8234C55.5737 15.4509 54.8756 15.3751 54.2593 15.6209L46.2593 18.8209C45.4964 19.1216 44.9964 19.8599 45.0003 20.6799V42.8109L41.0003 38.5999V15.4999L59.5933 1.79991C59.9786 1.45545 60.038 0.874073 59.7302 0.458835C59.4224 0.0435957 58.8489 -0.0686539 58.4073 0.199908L39.6723 13.9999H20.3283L1.59326 0.199908C1.14996 -0.0845024 0.562038 0.0236923 0.249025 0.447288C-0.0639869 0.870884 0.00522012 1.46466 0.407263 1.80491L19.0003 15.5049V38.5999L15.0003 42.8099V20.6799C15.0042 19.8599 14.5042 19.1216 13.7413 18.8209ZM5.00026 17.4779L13.0003 20.6779V32.3779L11.5533 33.1009C11.059 33.3478 10.8584 33.9486 11.1053 34.4429C11.3521 34.9372 11.953 35.1378 12.4473 34.8909L13.0003 34.6179V44.9179L5.00026 53.3379V17.4779ZM8.84726 57.9999L22.1473 43.9999H37.8543L51.1543 57.9999H8.84726ZM53.9123 57.9999L39.0123 42.3109C38.8225 42.1113 38.5587 41.9987 38.2833 41.9999H21.7173C21.4432 41.9998 21.1811 42.1123 20.9923 42.3109L6.08826 57.9999H3.32926L20.4293 39.9999H39.5703L56.6703 57.9999H53.9123ZM34.0003 29.9999H33.0003C32.448 29.9999 32.0003 30.4476 32.0003 30.9999C32.0003 31.5522 32.448 31.9999 33.0003 31.9999H34.0003V37.9999H26.0003V21.9999H34.0003V29.9999ZM47.0003 20.6789L55.0003 17.4789V34.3789L54.4473 34.1019C53.953 33.855 53.3521 34.0556 53.1053 34.5499C52.8584 35.0442 53.059 35.645 53.5533 35.8919L55.0003 36.6179V53.3379L47.0003 44.9169V20.6789ZM21.0003 15.9999H39.0003V37.9999H36.0003V21.9999C36.0003 20.8953 35.1048 19.9999 34.0003 19.9999H26.0003C24.8957 19.9999 24.0003 20.8953 24.0003 21.9999V37.9999H21.0003V15.9999Z" fill="#CA9762"/>
<path d="M30 8C32.757 8 35 6.206 35 4C35 1.794 32.757 0 30 0C27.243 0 25 1.794 25 4C25 6.206 27.243 8 30 8ZM30 2C31.626 2 33 2.916 33 4C33 5.084 31.626 6 30 6C28.374 6 27 5.084 27 4C27 2.916 28.374 2 30 2Z" fill="#CA9762"/>
</g>
<defs>
<clipPath id="clip0_38_8775">
<rect width="60" height="60" fill="white"/>
</clipPath>
</defs>
</svg>
