<svg width="23" height="23" viewBox="0 0 23 23" fill="none" xmlns="http://www.w3.org/2000/svg">
<path d="M11.4441 2.20399C14.4129 2.20399 14.7644 2.21701 15.932 2.2691C17.017 2.31684 17.603 2.49913 17.9936 2.65104C18.5101 2.85069 18.8834 3.09375 19.2696 3.48003C19.6603 3.87066 19.899 4.23958 20.0986 4.75608C20.2505 5.1467 20.4328 5.73698 20.4806 6.81771C20.5327 7.98958 20.5457 8.34115 20.5457 11.3056C20.5457 14.2743 20.5327 14.6259 20.4806 15.7934C20.4328 16.8785 20.2505 17.4644 20.0986 17.855C19.899 18.3715 19.6559 18.7448 19.2696 19.1311C18.879 19.5217 18.5101 19.7604 17.9936 19.9601C17.603 20.112 17.0127 20.2943 15.932 20.342C14.7601 20.3941 14.4085 20.4071 11.4441 20.4071C8.47537 20.4071 8.12381 20.3941 6.95627 20.342C5.8712 20.2943 5.28527 20.112 4.89464 19.9601C4.37815 19.7604 4.00488 19.5174 3.6186 19.1311C3.22797 18.7405 2.98926 18.3715 2.78961 17.855C2.6377 17.4644 2.4554 16.8741 2.40766 15.7934C2.35558 14.6215 2.34256 14.27 2.34256 11.3056C2.34256 8.33681 2.35558 7.98524 2.40766 6.81771C2.4554 5.73264 2.6377 5.1467 2.78961 4.75608C2.98926 4.23958 3.23231 3.86632 3.6186 3.48003C4.00922 3.08941 4.37815 2.85069 4.89464 2.65104C5.28527 2.49913 5.87554 2.31684 6.95627 2.2691C8.12381 2.21701 8.47537 2.20399 11.4441 2.20399ZM11.4441 0.203125C8.42763 0.203125 8.05002 0.216146 6.86513 0.268229C5.68457 0.320313 4.87294 0.511285 4.16981 0.784722C3.43631 1.07118 2.81565 1.44878 2.19933 2.06944C1.57867 2.68576 1.20106 3.30642 0.914605 4.03559C0.641168 4.74306 0.450195 5.55035 0.398112 6.7309C0.346029 7.92014 0.333008 8.29774 0.333008 11.3142C0.333008 14.3307 0.346029 14.7083 0.398112 15.8932C0.450195 17.0738 0.641168 17.8854 0.914605 18.5885C1.20106 19.3221 1.57867 19.9427 2.19933 20.559C2.81565 21.1753 3.43631 21.5573 4.16547 21.8394C4.87294 22.1128 5.68023 22.3038 6.86079 22.3559C8.04568 22.408 8.42329 22.421 11.4398 22.421C14.4563 22.421 14.8339 22.408 16.0188 22.3559C17.1993 22.3038 18.011 22.1128 18.7141 21.8394C19.4433 21.5573 20.0639 21.1753 20.6802 20.559C21.2966 19.9427 21.6785 19.3221 21.9606 18.5929C22.2341 17.8854 22.425 17.0781 22.4771 15.8976C22.5292 14.7127 22.5422 14.3351 22.5422 11.3186C22.5422 8.30208 22.5292 7.92448 22.4771 6.73958C22.425 5.55903 22.2341 4.7474 21.9606 4.04427C21.6872 3.30642 21.3096 2.68576 20.6889 2.06944C20.0726 1.45313 19.4519 1.07118 18.7228 0.789062C18.0153 0.515625 17.208 0.324653 16.0275 0.272569C14.8382 0.216146 14.4606 0.203125 11.4441 0.203125Z" fill="#EDEDED"/>
<path d="M11.4438 5.60645C8.29275 5.60645 5.73633 8.16287 5.73633 11.3139C5.73633 14.465 8.29275 17.0214 11.4438 17.0214C14.5948 17.0214 17.1513 14.465 17.1513 11.3139C17.1513 8.16287 14.5948 5.60645 11.4438 5.60645ZM11.4438 15.0162C9.39952 15.0162 7.74154 13.3582 7.74154 11.3139C7.74154 9.26964 9.39952 7.61165 11.4438 7.61165C13.4881 7.61165 15.146 9.26964 15.146 11.3139C15.146 13.3582 13.4881 15.0162 11.4438 15.0162Z" fill="#EDEDED"/>
<path d="M18.7099 5.3813C18.7099 6.11914 18.1109 6.71376 17.3774 6.71376C16.6395 6.71376 16.0449 6.1148 16.0449 5.3813C16.0449 4.64345 16.6439 4.04883 17.3774 4.04883C18.1109 4.04883 18.7099 4.64779 18.7099 5.3813Z" fill="#EDEDED"/>
</svg>
