<svg width="23" height="23" viewBox="0 0 23 23" fill="none" xmlns="http://www.w3.org/2000/svg">
<path d="M20.7999 0.203125H1.86328C0.956163 0.203125 0.222656 0.919271 0.222656 1.80469V20.8194C0.222656 21.7049 0.956163 22.4253 1.86328 22.4253H20.7999C21.707 22.4253 22.4449 21.7049 22.4449 20.8238V1.80469C22.4449 0.919271 21.707 0.203125 20.7999 0.203125ZM6.81554 19.1398H3.51693V8.53212H6.81554V19.1398ZM5.16623 7.08681C4.1072 7.08681 3.25217 6.23177 3.25217 5.17708C3.25217 4.1224 4.1072 3.26736 5.16623 3.26736C6.22092 3.26736 7.07595 4.1224 7.07595 5.17708C7.07595 6.22743 6.22092 7.08681 5.16623 7.08681ZM19.1593 19.1398H15.865V13.9835C15.865 12.7552 15.8433 11.171 14.1506 11.171C12.4362 11.171 12.1758 12.5122 12.1758 13.8967V19.1398H8.88585V8.53212H12.0456V9.98177H12.089C12.5273 9.14844 13.6037 8.26736 15.2053 8.26736C18.543 8.26736 19.1593 10.4635 19.1593 13.3194V19.1398Z" fill="#EDEDED"/>
</svg>
