<svg width="34" height="35" viewBox="0 0 34 35" fill="none" xmlns="http://www.w3.org/2000/svg">
<path d="M31.1663 15.0565V13.9479C31.1663 11.2001 31.1663 9.82624 30.3365 8.9726C29.5066 8.11898 28.1709 8.11898 25.4997 8.11898H22.555C21.2553 8.11898 21.2446 8.11645 20.076 7.53163L15.3562 5.16976C13.3855 4.18362 12.4002 3.69055 11.3505 3.72482C10.3009 3.75909 9.34793 4.31542 7.44206 5.42812L5.70258 6.44367C4.30264 7.26097 3.60267 7.66964 3.21783 8.34947C2.83301 9.02931 2.83301 9.85721 2.83301 11.513V23.1537C2.83301 25.3293 2.83301 26.4172 3.31788 27.0226C3.64052 27.4254 4.09265 27.6963 4.59251 27.7861C5.34371 27.9209 6.26344 27.384 8.10282 26.3101C9.35189 25.5809 10.554 24.8235 12.0482 25.029C13.3003 25.2009 14.4638 25.991 15.583 26.551" stroke="#F2F2F2" stroke-width="2" stroke-linecap="round"/>
<path d="M11.333 3.72314V24.9731" stroke="#F2F2F2" stroke-width="2"/>
<path d="M21.25 7.97314V14.3481" stroke="#F2F2F2" stroke-width="2" stroke-linecap="round"/>
<path d="M25.9371 31.6082C25.6299 31.8958 25.2194 32.0566 24.7921 32.0566C24.3649 32.0566 23.9543 31.8958 23.6472 31.6082C20.8342 28.9583 17.0648 25.9982 18.903 21.7004C19.897 19.3768 22.2829 17.8899 24.7921 17.8899C27.3013 17.8899 29.6873 19.3768 30.6812 21.7004C32.5172 25.9927 28.757 28.9674 25.9371 31.6082Z" stroke="#F2F2F2" stroke-width="2"/>
<path d="M24.792 24.2649H24.8047" stroke="#F2F2F2" stroke-width="2" stroke-linecap="round"/>
</svg>
