<svg width="60" height="60" viewBox="0 0 60 60" fill="none" xmlns="http://www.w3.org/2000/svg">
<g clip-path="url(#clip0_38_8800)">
<path d="M47.3978 59.0657L47.1186 54.6451C47.011 52.9462 46.4009 51.3402 45.3543 50.0002C45.0554 49.6176 44.5032 49.5495 44.1206 49.8487C43.7381 50.1475 43.6702 50.6999 43.969 51.0824C44.7967 52.1418 45.2791 53.4123 45.3643 54.7558L45.5842 58.2421H14.4153L14.6353 54.7563C14.7483 52.9747 15.5497 51.346 16.8919 50.1703C17.6877 49.4735 18.6512 48.9715 19.6786 48.718L24.4253 47.5448C25.0564 47.3886 25.4973 46.8261 25.4973 46.1771V42.7902C27.0197 43.401 28.58 43.7313 29.9998 43.7313C31.4006 43.7313 32.9422 43.4086 34.4485 42.8116V46.1631C34.4485 46.813 34.8889 47.3758 35.5198 47.532L40.3223 48.7182C40.73 48.8184 41.1319 48.9594 41.517 49.1372C41.6363 49.1924 41.7616 49.2184 41.885 49.2184C42.2171 49.2184 42.535 49.0291 42.6835 48.7078C42.8869 48.267 42.6947 47.7449 42.254 47.5414C41.7672 47.3165 41.2584 47.1382 40.7428 47.0115L36.2064 45.891V41.9789C38.8081 40.5349 40.9579 38.3594 42.2953 35.803C42.5203 35.3729 42.354 34.8418 41.9239 34.6168C41.4936 34.3915 40.9627 34.558 40.7377 34.9882C39.4866 37.3799 37.4234 39.3975 34.9283 40.6692C33.2787 41.5104 31.5286 41.9736 30 41.9736C28.4526 41.9736 26.6847 41.5011 25.0206 40.6426C22.6049 39.3999 20.5883 37.4453 19.3424 35.1386C19.1117 34.7114 18.5787 34.5523 18.1514 34.783C17.7242 35.0137 17.5651 35.5469 17.7959 35.974C19.1255 38.4356 21.224 40.5404 23.7397 41.9489V45.9037L19.2575 47.0114C17.959 47.3315 16.7405 47.9665 15.7341 48.8479C14.0372 50.3343 13.0241 52.3931 12.8813 54.6453L12.6023 59.0658C12.587 59.3081 12.6727 59.546 12.8387 59.7228C13.0048 59.8996 13.2367 60.0001 13.4795 60.0001H46.5207C46.7634 60.0001 46.9953 59.8998 47.1615 59.7228C47.3276 59.5457 47.4132 59.308 47.3978 59.0657Z" fill="#CA9762"/>
<path d="M55.8712 13.7676C55.3858 13.7676 54.9923 14.161 54.9923 14.6465V32.6731C54.9923 38.8382 48.4696 41.9659 44.5813 43.2816C42.5141 43.9813 41.4585 43.6099 41.2534 43.1893C41.1313 42.9391 41.2882 42.605 41.6351 42.3768C43.1323 41.3924 49.1808 36.7879 49.1808 33.8899C49.1808 32.5809 49.0561 31.3248 48.9514 30.5016C48.8918 30.0323 48.6096 29.6145 48.1964 29.384C47.7826 29.1529 47.2782 29.1325 46.8469 29.3285L42.1538 31.4612C41.8168 31.6143 41.4257 31.5307 41.181 31.253C41.028 31.0796 40.955 30.8572 40.9753 30.627C40.9956 30.3967 41.1063 30.1906 41.2873 30.0465C42.1245 29.3794 42.8263 28.852 43.415 28.4328C43.4218 28.4278 43.4291 28.4232 43.4357 28.418C44.8301 27.4271 45.5791 27.0542 45.945 26.9145C45.9623 26.9086 45.9796 26.9026 45.9964 26.8955C46.1647 26.8353 46.2368 26.8307 46.2466 26.8304H49.1248C49.6101 26.8304 50.0037 26.437 50.0037 25.9515V15.1463C50.0037 14.6608 49.6101 14.2674 49.1248 14.2674C48.6394 14.2674 48.2458 14.6608 48.2458 15.1463V25.0725H46.8451C47.0862 24.0416 47.2978 22.7198 47.237 21.3998C47.151 19.531 46.5219 18.1127 45.4096 17.2617C45.3148 14.1571 44.5027 11.6368 42.9925 9.76499C41.9159 8.43058 40.5169 7.4557 38.8306 6.85921C38.2852 4.04086 36.0457 1.53399 33.0972 0.510007C30.5564 -0.372179 25.3258 -0.869522 18.8388 5.71383C18.4981 6.05953 18.5022 6.61593 18.8479 6.9566C19.1936 7.29738 19.7501 7.29328 20.0908 6.94746C25.8994 1.0527 30.3715 1.42454 32.5201 2.17055C33.1327 2.38325 33.6842 2.66485 34.1761 2.99379C33.6127 2.97586 33.0402 3.02426 32.4776 3.14238C30.6761 3.52137 28.9344 4.5218 27.1528 6.20109C26.7996 6.53402 26.7831 7.09031 27.116 7.44363C27.289 7.62703 27.5221 7.7196 27.7558 7.7196C27.972 7.7196 28.1887 7.64027 28.3585 7.48031C29.898 6.02929 31.3637 5.17301 32.8392 4.86258C34.1073 4.59633 35.4238 4.79332 36.4072 5.38722C36.8383 6.14437 37.0927 6.92425 37.1697 7.62433C37.1984 7.87863 37.2058 8.12788 37.1915 8.36613C37.1724 8.69202 37.1138 9.02261 37.0158 9.35741C36.7076 10.4107 36.0093 11.5072 34.9281 12.6394C34.0559 13.5528 33.0339 14.388 32.0147 15.1262C32.0145 15.1264 32.0142 15.1267 32.0139 15.1269C29.9339 16.6351 27.2666 18.1562 24.0858 19.6481C21.0203 21.0873 18.3538 23.7364 17.0211 26.5934C15.7943 25.7614 15.0271 25.3848 14.5317 25.214C14.0633 20.8684 14.3364 14.8328 17.91 9.59495C18.1836 9.19405 18.0803 8.64726 17.6794 8.37363C17.2784 8.09999 16.7316 8.20335 16.4581 8.60437C12.6765 14.1469 12.2991 20.4514 12.7498 25.0723H11.7551V15.1462C11.7551 14.6607 11.3616 14.2673 10.8762 14.2673C10.3908 14.2673 9.99733 14.6607 9.99733 15.1462V25.9514C9.99733 26.4369 10.3908 26.8303 10.8762 26.8303H13.7535C13.7856 26.8311 14.4454 26.8737 16.8868 28.6493C16.896 28.6563 16.9054 28.6631 16.9149 28.6698C17.4322 29.0466 18.027 29.499 18.714 30.0464C18.8948 30.1904 19.0056 30.3965 19.0259 30.6268C19.0462 30.8569 18.9732 31.0792 18.8202 31.2528C18.5756 31.5304 18.1844 31.6141 17.8475 31.4609L13.1544 29.3282C12.7229 29.1323 12.2185 29.1529 11.8047 29.3838C11.3915 29.6143 11.1092 30.0321 11.0497 30.5014C10.945 31.3245 10.8203 32.5807 10.8203 33.8896C10.8203 36.7877 16.8687 41.3922 18.366 42.3766C18.7129 42.6046 18.8698 42.9388 18.7477 43.189C18.5425 43.6094 17.4869 43.9809 15.4197 43.2814C11.5315 41.9657 5.00879 38.838 5.00879 32.6729V14.6468C5.00879 14.1613 4.61527 13.7679 4.12988 13.7679C3.64449 13.7679 3.25098 14.1613 3.25098 14.6468V32.6732C3.25098 35.8344 4.64093 38.6149 7.38253 40.9375C9.78721 42.9749 12.7741 44.2423 14.8563 44.947C15.8574 45.2857 16.7159 45.4288 17.4399 45.4288C18.9994 45.4287 19.9352 44.7645 20.3275 43.9605C20.8407 42.9087 20.4221 41.625 19.3319 40.9082C18.2733 40.2122 16.5395 38.8519 15.0522 37.3825C13.2282 35.5801 12.5783 34.3966 12.5783 33.8901C12.5783 32.846 12.6644 31.8315 12.7509 31.0762L17.1203 33.0617C18.166 33.5367 19.3793 33.2773 20.1391 32.4154C20.6134 31.8773 20.84 31.1874 20.7772 30.4729C20.7142 29.7584 20.3706 29.1188 19.8095 28.6718C19.3278 28.2878 18.887 27.9473 18.4792 27.641C19.5776 25.0613 22.0566 22.5433 24.8329 21.24C27.9252 19.7897 30.5575 18.3047 32.666 16.8217C38.6221 19.0186 40.7603 23.5073 41.8808 27.3739C41.3777 27.7443 40.8185 28.1723 40.1916 28.6718C39.6305 29.1188 39.2868 29.7584 39.224 30.473C39.161 31.1875 39.3877 31.8773 39.862 32.4155C40.6215 33.2773 41.8348 33.5367 42.8808 33.0618L47.25 31.0763C47.3365 31.8315 47.4226 32.8462 47.4226 33.8902C47.4226 34.3967 46.7727 35.5803 44.9487 37.3826C43.4614 38.8522 41.7277 40.2124 40.669 40.9083C39.5788 41.6252 39.1602 42.9088 39.6734 43.9606C40.0658 44.7647 41.0012 45.4291 42.561 45.4291C43.285 45.4291 44.1437 45.2859 45.1446 44.9472C47.2269 44.2425 50.2138 42.975 52.6185 40.9377C55.3601 38.6152 56.75 35.8346 56.75 32.6735V14.6469C56.7501 14.1612 56.3566 13.7676 55.8712 13.7676ZM34.3044 15.5852C36.4225 13.8573 38.6106 11.4997 38.9193 8.78601C42.0754 10.217 43.2286 13.1802 43.5534 15.9664L43.2127 15.7264C42.8157 15.4469 42.2674 15.5421 41.9879 15.9389C41.7084 16.3358 41.8035 16.884 42.2003 17.1636L44.0333 18.4549C44.0433 18.4619 44.0541 18.4666 44.0641 18.4732C44.0762 18.4809 44.0872 18.4898 44.0998 18.497C45.8994 19.5361 45.6928 22.7963 44.9354 25.4347C44.5446 25.6187 44.0432 25.8976 43.398 26.3163C42.2425 22.6202 39.9721 18.0761 34.3044 15.5852Z" fill="#CA9762"/>
</g>
<defs>
<clipPath id="clip0_38_8800">
<rect width="60" height="60" fill="white"/>
</clipPath>
</defs>
</svg>
