<svg width="92" height="93" viewBox="0 0 92 93" fill="none" xmlns="http://www.w3.org/2000/svg">
<path d="M19.167 61.5763L38.3337 50.0763M53.667 42.4097L72.8337 30.9097M46.0003 19.4097V38.5763M46.0003 53.9097V73.0763M19.167 30.9097L38.3337 42.4097M53.667 50.0763L72.8337 61.5763" stroke="#CA9762" stroke-width="3"/>
<path d="M78.5837 34.743V55.8263M51.7503 78.8263L72.8337 67.3263M17.2503 67.3263L40.2503 78.8263M13.417 57.743V34.743M17.2503 25.1597L40.2503 13.6597M74.7503 25.1597L51.7503 13.6597" stroke="#CA9762" stroke-width="3"/>
<path d="M46 19.4097C49.1756 19.4097 51.75 16.8353 51.75 13.6597C51.75 10.484 49.1756 7.90967 46 7.90967C42.8244 7.90967 40.25 10.484 40.25 13.6597C40.25 16.8353 42.8244 19.4097 46 19.4097Z" stroke="#CA9762" stroke-width="3"/>
<path d="M46 84.5767C49.1756 84.5767 51.75 82.0023 51.75 78.8267C51.75 75.651 49.1756 73.0767 46 73.0767C42.8244 73.0767 40.25 75.651 40.25 78.8267C40.25 82.0023 42.8244 84.5767 46 84.5767Z" stroke="#CA9762" stroke-width="3"/>
<path d="M13.417 34.7432C16.5926 34.7432 19.167 32.1688 19.167 28.9932C19.167 25.8175 16.5926 23.2432 13.417 23.2432C10.2414 23.2432 7.66699 25.8175 7.66699 28.9932C7.66699 32.1688 10.2414 34.7432 13.417 34.7432Z" stroke="#CA9762" stroke-width="3"/>
<path d="M78.583 34.7432C81.7586 34.7432 84.333 32.1688 84.333 28.9932C84.333 25.8175 81.7586 23.2432 78.583 23.2432C75.4074 23.2432 72.833 25.8175 72.833 28.9932C72.833 32.1688 75.4074 34.7432 78.583 34.7432Z" stroke="#CA9762" stroke-width="3"/>
<path d="M78.583 69.2432C81.7586 69.2432 84.333 66.6688 84.333 63.4932C84.333 60.3175 81.7586 57.7432 78.583 57.7432C75.4074 57.7432 72.833 60.3175 72.833 63.4932C72.833 66.6688 75.4074 69.2432 78.583 69.2432Z" stroke="#CA9762" stroke-width="3"/>
<path d="M13.417 69.2432C16.5926 69.2432 19.167 66.6688 19.167 63.4932C19.167 60.3175 16.5926 57.7432 13.417 57.7432C10.2414 57.7432 7.66699 60.3175 7.66699 63.4932C7.66699 66.6688 10.2414 69.2432 13.417 69.2432Z" stroke="#CA9762" stroke-width="3"/>
<path d="M45.9997 37.6182L53.6663 41.9307V50.5557L45.9997 54.8682L38.333 50.5557V41.9307L45.9997 37.6182Z" stroke="#CA9762" stroke-width="3"/>
</svg>
