<svg width="21" height="20" viewBox="0 0 21 20" fill="none" xmlns="http://www.w3.org/2000/svg">
<path d="M7.65826 3.95539L7.2556 3.04941C6.99232 2.45704 6.86068 2.16084 6.66381 1.93417C6.41708 1.6501 6.09547 1.4411 5.73568 1.33101C5.44859 1.24316 5.12446 1.24316 4.47621 1.24316C3.52791 1.24316 3.05376 1.24316 2.65573 1.42545C2.18687 1.64018 1.76344 2.10644 1.59473 2.59376C1.45151 3.00745 1.49254 3.43259 1.57458 4.28286C2.44791 13.3334 7.40982 18.2953 16.4603 19.1686C17.3106 19.2507 17.7358 19.2917 18.1494 19.1485C18.6368 18.9798 19.103 18.5563 19.3178 18.0875C19.5 17.6894 19.5 17.2153 19.5 16.267C19.5 15.6187 19.5 15.2946 19.4122 15.0075C19.3021 14.6477 19.0931 14.3261 18.809 14.0794C18.5824 13.8825 18.2862 13.7509 17.6938 13.4876L16.7878 13.0849C16.1463 12.7998 15.8255 12.6573 15.4996 12.6263C15.1876 12.5966 14.8731 12.6404 14.5811 12.7541C14.276 12.8729 14.0064 13.0976 13.467 13.547C12.9302 13.9944 12.6618 14.2181 12.3338 14.3379C12.043 14.4441 11.6586 14.4835 11.3524 14.4383C11.0069 14.3874 10.7424 14.2461 10.2133 13.9633C8.56726 13.0837 7.65953 12.176 6.77987 10.5299C6.49714 10.0009 6.35578 9.73626 6.30487 9.39086C6.25974 9.08456 6.29908 8.70016 6.4053 8.40946C6.52512 8.08144 6.74881 7.81302 7.19619 7.27616C7.64562 6.73684 7.87034 6.46718 7.98915 6.16207C8.10285 5.8701 8.14662 5.55556 8.11695 5.24364C8.08594 4.91768 7.94338 4.59692 7.65826 3.95539Z" stroke="white" stroke-width="1.5" stroke-linecap="round"/>
</svg>
