<svg width="34" height="35" viewBox="0 0 34 35" fill="none" xmlns="http://www.w3.org/2000/svg">
<path d="M16.9997 32.0565C24.8237 32.0565 31.1663 25.7138 31.1663 17.8898C31.1663 10.0658 24.8237 3.72314 16.9997 3.72314C9.17564 3.72314 2.83301 10.0658 2.83301 17.8898C2.83301 25.7138 9.17564 32.0565 16.9997 32.0565Z" stroke="#F2F2F2" stroke-width="2"/>
<path d="M17 7.26489C19.1015 7.26489 21.1556 7.88804 22.903 9.05553C24.6501 10.223 26.012 11.8824 26.8162 13.8239C27.6205 15.7653 27.8308 17.9017 27.4209 19.9628C27.0109 22.0237 25.999 23.917 24.513 25.4029C23.0271 26.8888 21.1338 27.9008 19.0729 28.3108C17.0118 28.7207 14.8754 28.5104 12.934 27.7061C10.9925 26.9019 9.33313 25.54 8.16564 23.7929C6.99815 22.0455 6.375 19.9914 6.375 17.8899H17V7.26489Z" fill="#F2F2F2"/>
</svg>
