<svg width="60" height="60" viewBox="0 0 60 60" fill="none" xmlns="http://www.w3.org/2000/svg">
<path d="M27.1875 10.3125C27.1875 10.4807 27.2328 10.6459 27.3186 10.7906C27.4044 10.9353 27.5275 11.0543 27.6751 11.135L30.4173 12.6344L31.9479 16.2988C32.0192 16.4694 32.1393 16.6152 32.2933 16.7177C32.4472 16.8202 32.628 16.875 32.813 16.875C32.9979 16.875 33.1787 16.8202 33.3327 16.7177C33.4866 16.6152 33.6068 16.4694 33.678 16.2988L35.2086 12.6344L37.9508 11.135C38.0984 11.0543 38.2216 10.9353 38.3074 10.7906C38.3932 10.6459 38.4385 10.4807 38.4385 10.3125C38.4385 10.1442 38.3932 9.97908 38.3074 9.83436C38.2216 9.68963 38.0984 9.57067 37.9508 9.48994L35.2086 7.99052L33.6776 4.32619C33.6063 4.15553 33.4861 4.00976 33.3322 3.90723C33.1783 3.80471 32.9975 3.75 32.8125 3.75C32.6275 3.75 32.4467 3.80471 32.2928 3.90723C32.1389 4.00976 32.0187 4.15553 31.9474 4.32619L30.4168 7.99052L27.6746 9.48994C27.5271 9.57074 27.4041 9.68973 27.3184 9.83445C27.2326 9.97917 27.1874 10.1443 27.1875 10.3125ZM31.6055 9.47775C31.7922 9.3756 31.9386 9.21293 32.0207 9.0165L32.8125 7.11982L33.6048 9.0165C33.6868 9.21293 33.8332 9.3756 34.02 9.47775L35.5463 10.3125L34.0195 11.1472C33.8328 11.2494 33.6864 11.412 33.6043 11.6085L32.8125 13.5051L32.0202 11.6085C31.9382 11.412 31.7918 11.2494 31.605 11.1472L30.0787 10.3125L31.6055 9.47775Z" fill="#CA9762"/>
<path d="M53.4375 14.9999C52.5181 14.9993 51.6188 15.2692 50.8517 15.7762C50.0846 16.2831 49.4837 17.0046 49.1239 17.8507C48.764 18.6968 48.6611 19.6301 48.828 20.5342C48.995 21.4384 49.4243 22.2734 50.0625 22.9353C49.4797 23.3023 49.052 23.8706 48.8607 24.5323C48.6694 25.194 48.7279 25.9029 49.025 26.5243L46.9418 28.6075C46.2943 29.2547 45.6103 29.8644 44.8934 30.4336C44.9635 30.2999 45.0001 30.151 45 29.9999V17.4763C45.4761 16.9365 45.7868 16.271 45.895 15.5594C46.0032 14.8478 45.9043 14.12 45.61 13.4631C45.3158 12.8062 44.8388 12.2478 44.2358 11.8546C43.6329 11.4615 42.9295 11.2502 42.2097 11.2459C41.4899 11.2417 40.7841 11.4447 40.1766 11.8307C39.569 12.2167 39.0854 12.7694 38.7835 13.4228C38.4815 14.0762 38.374 14.8027 38.4738 15.5156C38.5735 16.2284 38.8763 16.8975 39.3461 17.4429C36.8135 19.8178 33.4719 21.1395 30 21.1395C26.5282 21.1395 23.1865 19.8178 20.6539 17.4429C21.1237 16.8975 21.4265 16.2284 21.5262 15.5156C21.626 14.8027 21.5185 14.0762 21.2165 13.4228C20.9146 12.7694 20.431 12.2167 19.8234 11.8307C19.2159 11.4447 18.5101 11.2417 17.7903 11.2459C17.0705 11.2502 16.3671 11.4615 15.7642 11.8546C15.1612 12.2478 14.6842 12.8062 14.39 13.4631C14.0958 14.12 13.9968 14.8478 14.105 15.5594C14.2132 16.271 14.5239 16.9365 15 17.4763V29.9999C15 30.151 15.0366 30.2998 15.1069 30.4335C14.3899 29.8643 13.706 29.2546 13.0584 28.6074L10.9752 26.5243C11.2723 25.9029 11.3307 25.1939 11.1394 24.5323C10.9481 23.8706 10.5204 23.3023 9.9375 22.9353C10.5758 22.2731 11.0052 21.4377 11.1721 20.5332C11.3391 19.6287 11.2363 18.6951 10.8765 17.8487C10.5167 17.0022 9.91587 16.2803 9.14878 15.7728C8.38169 15.2654 7.48226 14.9948 6.5625 14.9948C5.64275 14.9948 4.74332 15.2654 3.97623 15.7728C3.20914 16.2803 2.60829 17.0022 2.24851 17.8487C1.88873 18.6951 1.78592 19.6287 1.95289 20.5332C2.11985 21.4377 2.54922 22.2731 3.1875 22.9353C2.7407 23.2168 2.38225 23.6185 2.15322 24.0944C1.9242 24.5702 1.83387 25.101 1.89258 25.6258C1.95128 26.1506 2.15666 26.6483 2.48517 27.0618C2.81368 27.4753 3.25204 27.7878 3.75 27.9637V52.6579C3.20249 52.8503 2.72814 53.2079 2.39232 53.6812C2.05651 54.1545 1.87577 54.7204 1.875 55.3007V57.1874C1.875 57.4361 1.97377 57.6745 2.14959 57.8503C2.32541 58.0262 2.56386 58.1249 2.8125 58.1249H10.3125C10.5611 58.1249 10.7996 58.0262 10.9754 57.8503C11.1512 57.6745 11.25 57.4361 11.25 57.1874V55.3007C11.2493 54.7203 11.0685 54.1545 10.7327 53.6811C10.3969 53.2078 9.92254 52.8502 9.375 52.6578V32.2633L10.1322 33.0203C12.5405 35.4332 15.3702 37.3849 18.4812 38.779L12.2387 56.8818C12.19 57.023 12.1758 57.1738 12.1972 57.3216C12.2185 57.4695 12.2749 57.61 12.3616 57.7317C12.4484 57.8533 12.5629 57.9524 12.6957 58.0208C12.8284 58.0892 12.9756 58.1249 13.125 58.1249H46.875C47.0244 58.1249 47.1716 58.0892 47.3044 58.0208C47.4371 57.9524 47.5517 57.8533 47.6384 57.7317C47.7251 57.61 47.7815 57.4695 47.8029 57.3216C47.8242 57.1738 47.81 57.023 47.7613 56.8818L41.5195 38.7789C44.6305 37.3848 47.4601 35.4331 49.8684 33.0203L50.6256 32.2633V52.6579C50.078 52.8502 49.6035 53.2077 49.2676 53.6811C48.9316 54.1544 48.7508 54.7203 48.75 55.3007V57.1874C48.75 57.4361 48.8488 57.6745 49.0246 57.8503C49.2004 58.0262 49.4389 58.1249 49.6875 58.1249H57.1875C57.4361 58.1249 57.6746 58.0262 57.8504 57.8503C58.0262 57.6745 58.125 57.4361 58.125 57.1874V55.3007C58.1243 54.7203 57.9435 54.1545 57.6077 53.6811C57.2719 53.2078 56.7975 52.8502 56.25 52.6578V27.9637C56.748 27.7878 57.1863 27.4753 57.5148 27.0618C57.8433 26.6483 58.0487 26.1506 58.1074 25.6258C58.1661 25.101 58.0758 24.5702 57.8468 24.0944C57.6178 23.6185 57.2593 23.2168 56.8125 22.9353C57.4507 22.2734 57.8801 21.4384 58.047 20.5342C58.2139 19.6301 58.111 18.6968 57.7511 17.8507C57.3913 17.0046 56.7904 16.2831 56.0233 15.7762C55.2562 15.2692 54.3569 14.9993 53.4375 14.9999ZM53.4375 16.8749C53.9938 16.8749 54.5375 17.0399 55 17.3489C55.4626 17.658 55.823 18.0972 56.0359 18.6111C56.2488 19.125 56.3045 19.6905 56.196 20.2361C56.0874 20.7817 55.8196 21.2828 55.4262 21.6762C55.0329 22.0695 54.5318 22.3374 53.9862 22.4459C53.4406 22.5544 52.8751 22.4987 52.3612 22.2858C51.8473 22.073 51.408 21.7125 51.099 21.25C50.79 20.7875 50.625 20.2437 50.625 19.6874C50.6259 18.9418 50.9225 18.2269 51.4497 17.6996C51.977 17.1724 52.6919 16.8758 53.4375 16.8749ZM52.5 52.4999V28.1249H54.375V52.4999H52.5ZM41.25 18.6312C41.865 18.7895 42.51 18.7895 43.125 18.6312V29.0624H41.25V18.6312ZM42.1875 13.1249C42.5583 13.1249 42.9209 13.2349 43.2292 13.4409C43.5375 13.647 43.7779 13.9398 43.9198 14.2824C44.0617 14.625 44.0988 15.002 44.0265 15.3657C43.9541 15.7294 43.7756 16.0635 43.5133 16.3258C43.2511 16.588 42.917 16.7666 42.5533 16.8389C42.1896 16.9112 41.8126 16.8741 41.47 16.7322C41.1274 16.5903 40.8345 16.35 40.6285 16.0416C40.4225 15.7333 40.3125 15.3708 40.3125 14.9999C40.3131 14.5028 40.5108 14.0263 40.8623 13.6748C41.2138 13.3233 41.6904 13.1255 42.1875 13.1249ZM16.875 18.6312C17.49 18.7895 18.135 18.7895 18.75 18.6312V29.0624H16.875V18.6312ZM17.8125 13.1249C18.1833 13.1249 18.5459 13.2349 18.8542 13.4409C19.1625 13.647 19.4029 13.9398 19.5448 14.2824C19.6867 14.625 19.7238 15.002 19.6515 15.3657C19.5791 15.7294 19.4006 16.0635 19.1383 16.3258C18.8761 16.588 18.542 16.7666 18.1783 16.8389C17.8146 16.9112 17.4376 16.8741 17.095 16.7322C16.7524 16.5903 16.4595 16.35 16.2535 16.0416C16.0475 15.7333 15.9375 15.3708 15.9375 14.9999C15.9381 14.5028 16.1358 14.0263 16.4873 13.6748C16.8388 13.3233 17.3154 13.1255 17.8125 13.1249ZM15.9375 30.9374H19.6875C19.9361 30.9374 20.1746 30.8387 20.3504 30.6628C20.5262 30.487 20.625 30.2486 20.625 29.9999V19.8705C23.3247 21.9104 26.6162 23.0142 30 23.0142C33.3838 23.0142 36.6753 21.9104 39.375 19.8705V29.9999C39.375 30.2486 39.4738 30.487 39.6496 30.6628C39.8254 30.8387 40.0639 30.9374 40.3125 30.9374H44.0625C44.1328 30.9372 44.2029 30.9291 44.2715 30.9133C42.8572 31.9624 41.331 32.8515 39.7208 33.5644L38.3863 29.6943C38.3227 29.5098 38.2031 29.3498 38.0442 29.2366C37.8854 29.1233 37.6951 29.0624 37.5 29.0624H22.5C22.3049 29.0624 22.1146 29.1233 21.9558 29.2366C21.7969 29.3498 21.6773 29.5098 21.6137 29.6943L20.2792 33.5644C18.669 32.8515 17.1429 31.9624 15.7286 30.9133C15.7971 30.9291 15.8672 30.9372 15.9375 30.9374ZM37.9764 34.2577C32.815 36.0807 27.1849 36.0807 22.0235 34.2577L23.168 30.9374H36.832L37.9764 34.2577ZM5.625 52.4999V28.1249H7.5V52.4999H5.625ZM4.6875 24.3749H8.4375C8.68614 24.3749 8.9246 24.4737 9.10042 24.6495C9.27623 24.8253 9.375 25.0638 9.375 25.3124C9.375 25.5611 9.27623 25.7995 9.10042 25.9753C8.9246 26.1512 8.68614 26.2499 8.4375 26.2499H4.6875C4.43886 26.2499 4.20041 26.1512 4.02459 25.9753C3.84877 25.7995 3.75 25.5611 3.75 25.3124C3.75 25.0638 3.84877 24.8253 4.02459 24.6495C4.20041 24.4737 4.43886 24.3749 4.6875 24.3749ZM6.5625 16.8749C7.11876 16.8749 7.66253 17.0399 8.12504 17.3489C8.58756 17.658 8.94804 18.0972 9.16091 18.6111C9.37379 19.125 9.42948 19.6905 9.32096 20.2361C9.21244 20.7817 8.94458 21.2828 8.55124 21.6762C8.15791 22.0695 7.65677 22.3374 7.11119 22.4459C6.56562 22.5544 6.00012 22.4987 5.48621 22.2858C4.97229 22.073 4.53304 21.7125 4.22399 21.25C3.91495 20.7875 3.75 20.2437 3.75 19.6874C3.75087 18.9418 4.04747 18.2269 4.57472 17.6996C5.10198 17.1724 5.81685 16.8758 6.5625 16.8749ZM9.375 56.2499H3.75V55.3007C3.75031 55.0553 3.84795 54.82 4.0215 54.6464C4.19505 54.4729 4.43035 54.3752 4.67578 54.3749H8.44922C8.69466 54.3752 8.92995 54.4729 9.10351 54.6464C9.27706 54.82 9.37469 55.0553 9.375 55.3007V56.2499ZM14.44 56.2499L20.2191 39.4906C26.5287 41.8364 33.4713 41.8364 39.7809 39.4906L45.56 56.2499H14.44ZM48.5415 31.6946C46.1066 34.1296 43.2158 36.0611 40.0344 37.3789C36.853 38.6967 33.4431 39.375 29.9995 39.375C26.556 39.375 23.1461 38.6967 19.9647 37.3789C16.7832 36.0611 13.8925 34.1296 11.4575 31.6946L9.375 29.6116V27.9637C9.46837 27.9307 9.55994 27.8927 9.64934 27.8501L11.7325 29.9334C16.5774 34.7781 23.1484 37.4999 30 37.4999C36.8516 37.4999 43.4226 34.7781 48.2675 29.9334L50.3507 27.8501C50.4401 27.8927 50.5316 27.9307 50.625 27.9637V29.6116L48.5415 31.6946ZM56.25 56.2499H50.625V55.3007C50.6253 55.0553 50.723 54.82 50.8965 54.6464C51.0701 54.4729 51.3054 54.3752 51.5508 54.3749H55.3242C55.5697 54.3752 55.805 54.4729 55.9785 54.6464C56.1521 54.82 56.2497 55.0553 56.25 55.3007V56.2499ZM55.3125 26.2499H51.5625C51.3139 26.2499 51.0754 26.1512 50.8996 25.9753C50.7238 25.7995 50.625 25.5611 50.625 25.3124C50.625 25.0638 50.7238 24.8253 50.8996 24.6495C51.0754 24.4737 51.3139 24.3749 51.5625 24.3749H55.3125C55.5611 24.3749 55.7996 24.4737 55.9754 24.6495C56.1512 24.8253 56.25 25.0638 56.25 25.3124C56.25 25.5611 56.1512 25.7995 55.9754 25.9753C55.7996 26.1512 55.5611 26.2499 55.3125 26.2499Z" fill="#CA9762"/>
<path d="M22.5 3.75H24.375V5.625H22.5V3.75Z" fill="#CA9762"/>
<path d="M26.25 3.75H28.125V5.625H26.25V3.75Z" fill="#CA9762"/>
<path d="M24.375 1.875H26.25V3.75H24.375V1.875Z" fill="#CA9762"/>
<path d="M24.375 5.625H26.25V7.5H24.375V5.625Z" fill="#CA9762"/>
<path d="M24.375 14.0625H26.25V15.9375H24.375V14.0625Z" fill="#CA9762"/>
<path d="M45 3.75H46.875V5.625H45V3.75Z" fill="#CA9762"/>
<path d="M14.0625 4.6875H15.9375V6.5625H14.0625V4.6875Z" fill="#CA9762"/>
</svg>
