<svg width="60" height="60" viewBox="0 0 60 60" fill="none" xmlns="http://www.w3.org/2000/svg">
<path d="M21.5625 17.8124H29.0625V22.4999H30.9375V17.8124H38.4375C38.6861 17.8124 38.9246 17.7136 39.1004 17.5378C39.2762 17.362 39.375 17.1235 39.375 16.8749C39.3721 14.5517 38.5078 12.3121 36.9493 10.5892C35.3908 8.86626 33.2488 7.78247 30.9375 7.54739V6.54239C30.9322 6.29727 30.8311 6.06398 30.6558 5.8925C30.4806 5.72103 30.2452 5.625 30 5.625C29.7548 5.625 29.5194 5.72103 29.3442 5.8925C29.1689 6.06398 29.0678 6.29727 29.0625 6.54239V7.54739C26.7512 7.78247 24.6092 8.86626 23.0507 10.5892C21.4922 12.3121 20.6279 14.5517 20.625 16.8749C20.625 17.1235 20.7238 17.362 20.8996 17.5378C21.0754 17.7136 21.3139 17.8124 21.5625 17.8124ZM37.4419 15.9374H34.6493C34.4861 13.6756 33.6525 11.5138 32.255 9.72795C33.6216 10.1607 34.8361 10.9752 35.7551 12.0753C36.6741 13.1755 37.2593 14.5155 37.4419 15.9374ZM30 9.95586C31.574 11.5784 32.5502 13.6874 32.7686 15.9374H27.2314C27.4498 13.6874 28.426 11.5784 30 9.95586ZM27.7451 9.72792C26.3475 11.5138 25.5139 13.6756 25.3507 15.9374H22.5581C22.7407 14.5155 23.3259 13.1755 24.245 12.0753C25.164 10.9751 26.3784 10.1606 27.7451 9.72792Z" fill="#CA9762"/>
<path d="M30.9375 44.0625C31.1861 44.0625 31.4246 43.9637 31.6004 43.7879C31.7762 43.6121 31.875 43.3736 31.875 43.125C31.875 42.8764 31.7762 42.6379 31.6004 42.4621C31.4246 42.2863 31.1861 42.1875 30.9375 42.1875H29.0625C28.8139 42.1875 28.5754 42.2863 28.3996 42.4621C28.2238 42.6379 28.125 42.8764 28.125 43.125C28.125 43.3736 28.2238 43.6121 28.3996 43.7879C28.5754 43.9637 28.8139 44.0625 29.0625 44.0625H30.9375Z" fill="#CA9762"/>
<path d="M32.3438 45.9375H27.6562C27.1591 45.938 26.6825 46.1357 26.331 46.4872C25.9794 46.8387 25.7817 47.3154 25.7812 47.8125V53.4375C25.7812 53.6861 25.88 53.9246 26.0558 54.1004C26.2317 54.2762 26.4701 54.375 26.7188 54.375C26.9674 54.375 27.2058 54.2762 27.3817 54.1004C27.5575 53.9246 27.6562 53.6861 27.6562 53.4375V47.8125H32.3438V53.4375C32.3438 53.6861 32.4425 53.9246 32.6183 54.1004C32.7942 54.2762 33.0326 54.375 33.2812 54.375C33.5299 54.375 33.7683 54.2762 33.9442 54.1004C34.12 53.9246 34.2188 53.6861 34.2188 53.4375V47.8125C34.2183 47.3154 34.0205 46.8387 33.669 46.4872C33.3175 46.1357 32.8409 45.938 32.3438 45.9375Z" fill="#CA9762"/>
<path d="M48.75 43.5938C48.9986 43.5938 49.2371 43.495 49.4129 43.3192C49.5887 43.1433 49.6875 42.9049 49.6875 42.6562C49.6875 42.4076 49.5887 42.1692 49.4129 41.9933C49.2371 41.8175 48.9986 41.7188 48.75 41.7188H46.875C46.6264 41.7188 46.3879 41.8175 46.2121 41.9933C46.0363 42.1692 45.9375 42.4076 45.9375 42.6562C45.9375 42.9049 46.0363 43.1433 46.2121 43.3192C46.3879 43.495 46.6264 43.5938 46.875 43.5938H48.75Z" fill="#CA9762"/>
<path d="M49.6875 45.4688H45.9375C45.5647 45.4692 45.2072 45.6174 44.9436 45.8811C44.6799 46.1447 44.5317 46.5022 44.5312 46.875V51.5625C44.5317 51.9353 44.6799 52.2928 44.9436 52.5564C45.2072 52.8201 45.5647 52.9683 45.9375 52.9688H49.6875C50.0603 52.9683 50.4178 52.8201 50.6814 52.5564C50.9451 52.2928 51.0933 51.9353 51.0938 51.5625V46.875C51.0933 46.5022 50.9451 46.1447 50.6814 45.8811C50.4178 45.6174 50.0603 45.4692 49.6875 45.4688ZM49.2188 51.0938H46.4062V47.3438H49.2188V51.0938Z" fill="#CA9762"/>
<path d="M13.125 43.5938C13.3736 43.5938 13.6121 43.495 13.7879 43.3192C13.9637 43.1433 14.0625 42.9049 14.0625 42.6562C14.0625 42.4076 13.9637 42.1692 13.7879 41.9933C13.6121 41.8175 13.3736 41.7188 13.125 41.7188H11.25C11.0014 41.7188 10.7629 41.8175 10.5871 41.9933C10.4113 42.1692 10.3125 42.4076 10.3125 42.6562C10.3125 42.9049 10.4113 43.1433 10.5871 43.3192C10.7629 43.495 11.0014 43.5938 11.25 43.5938H13.125Z" fill="#CA9762"/>
<path d="M14.0625 45.4688H10.3125C9.93966 45.4692 9.58222 45.6174 9.31858 45.8811C9.05495 46.1447 8.90666 46.5022 8.90625 46.875V51.5625C8.90666 51.9353 9.05495 52.2928 9.31858 52.5564C9.58222 52.8201 9.93966 52.9683 10.3125 52.9688H14.0625C14.4353 52.9683 14.7928 52.8201 15.0564 52.5564C15.3201 52.2928 15.4683 51.9353 15.4688 51.5625V46.875C15.4683 46.5022 15.3201 46.1447 15.0564 45.8811C14.7928 45.6174 14.4353 45.4692 14.0625 45.4688ZM13.5938 51.0938H10.7812V47.3438H13.5938V51.0938Z" fill="#CA9762"/>
<path d="M12.5726 34.8894C12.5376 35.0074 12.5261 35.1312 12.5389 35.2536C12.5517 35.3761 12.5884 35.4948 12.6471 35.603C12.7058 35.7112 12.7852 35.8068 12.8808 35.8844C12.9764 35.9619 13.0863 36.0198 13.2043 36.0549C13.3223 36.0899 13.4461 36.1014 13.5685 36.0886C13.691 36.0758 13.8097 36.0391 13.9179 35.9804C14.0261 35.9218 14.1217 35.8424 14.1993 35.7467C14.2768 35.6511 14.3347 35.5412 14.3698 35.4232C14.5782 34.7186 14.7457 34.0025 14.8714 33.2786H19.6872V35.1563C19.6872 35.4049 19.7859 35.6434 19.9618 35.8192C20.1376 35.995 20.376 36.0938 20.6247 36.0938C20.8733 36.0938 21.1118 35.995 21.2876 35.8192C21.4634 35.6434 21.5622 35.4049 21.5622 35.1563V29.7611C21.5706 29.2376 21.3711 28.7322 21.0074 28.3556C20.6438 27.9789 20.1456 27.7619 19.6222 27.752H15.0901C14.8583 24.9866 14.1619 22.2801 13.0304 19.7461C12.9211 19.5235 12.728 19.3533 12.4935 19.2726C12.259 19.192 12.002 19.2076 11.779 19.3159C11.5559 19.4243 11.3848 19.6166 11.3032 19.8508C11.2216 20.085 11.2361 20.342 11.3435 20.5655C11.3778 20.6356 14.7159 27.6696 12.5726 34.8894ZM15.1749 29.627H19.6222C19.6446 29.6409 19.6626 29.6609 19.6741 29.6846C19.6856 29.7083 19.6902 29.7349 19.6872 29.7611V31.4036H15.1063C15.1541 30.8001 15.1771 30.2062 15.1749 29.627Z" fill="#CA9762"/>
<path d="M59.5824 38.1262L51.1449 32.5012C50.9909 32.3986 50.81 32.3438 50.6249 32.3438H48.7813C48.8779 32.9767 49.0145 33.603 49.1901 34.2188H50.3411L55.9661 37.9688H4.0337L9.6587 34.2188H10.8128C10.9884 33.603 11.1249 32.9767 11.2216 32.3438H9.37488C9.18981 32.3438 9.00888 32.3986 8.85486 32.5012L0.417365 38.1262C0.249979 38.2378 0.122943 38.4004 0.0550291 38.5897C-0.0128852 38.7791 -0.0180751 38.9853 0.0402264 39.1779C0.098528 39.3705 0.217228 39.5392 0.378786 39.6591C0.540344 39.779 0.736189 39.8437 0.937382 39.8438H2.81238V53.4375C2.81238 53.6861 2.91115 53.9246 3.08697 54.1004C3.26278 54.2762 3.50124 54.375 3.74988 54.375C3.99852 54.375 4.23698 54.2762 4.41279 54.1004C4.58861 53.9246 4.68738 53.6861 4.68738 53.4375V39.8438H19.6874V52.9688C19.6874 53.2174 19.7862 53.4558 19.962 53.6317C20.1378 53.8075 20.3762 53.9062 20.6249 53.9062C20.8735 53.9062 21.112 53.8075 21.2878 53.6317C21.4636 53.4558 21.5624 53.2174 21.5624 52.9688V39.8438H38.4374V52.9688C38.4374 53.2174 38.5362 53.4558 38.712 53.6317C38.8878 53.8075 39.1262 53.9062 39.3749 53.9062C39.6235 53.9062 39.862 53.8075 40.0378 53.6317C40.2136 53.4558 40.3124 53.2174 40.3124 52.9688V39.8438H55.3124V53.4375C55.3124 53.6861 55.4111 53.9246 55.587 54.1004C55.7628 54.2762 56.0012 54.375 56.2499 54.375C56.4985 54.375 56.737 54.2762 56.9128 54.1004C57.0886 53.9246 57.1874 53.6861 57.1874 53.4375V39.8438H59.0624C59.2636 39.8437 59.4594 39.779 59.621 39.6591C59.7825 39.5392 59.9012 39.3705 59.9595 39.1779C60.0178 38.9853 60.0126 38.7791 59.9447 38.5897C59.8768 38.4004 59.7498 38.2378 59.5824 38.1262Z" fill="#CA9762"/>
<path d="M38.4407 29.7611V35.1563C38.4407 35.405 38.5395 35.6434 38.7153 35.8193C38.8911 35.9951 39.1295 36.0938 39.3782 36.0938C39.6268 36.0938 39.8653 35.9951 40.0411 35.8193C40.2169 35.6434 40.3157 35.405 40.3157 35.1563V33.2786H45.1311C45.2567 34.0025 45.4242 34.7186 45.6326 35.4232C45.7069 35.6591 45.87 35.857 46.0875 35.9749C46.305 36.0927 46.5598 36.1215 46.7981 36.0549C46.9161 36.0199 47.0261 35.962 47.1217 35.8845C47.2173 35.8069 47.2968 35.7113 47.3554 35.6031C47.4141 35.4949 47.4509 35.3761 47.4636 35.2537C47.4764 35.1312 47.4649 35.0075 47.4298 34.8895C45.2902 27.6802 48.6154 20.6562 48.6589 20.566C48.7669 20.3425 48.7819 20.0852 48.7005 19.8506C48.6191 19.6161 48.448 19.4234 48.2247 19.3148C48.0014 19.2063 47.7441 19.1907 47.5094 19.2716C47.2746 19.3525 47.0815 19.5231 46.9725 19.7462C45.8409 22.2801 45.1445 24.9866 44.9126 27.752H40.3807C39.8572 27.7619 39.3591 27.979 38.9954 28.3556C38.6318 28.7322 38.4323 29.2377 38.4407 29.7611ZM40.3157 29.7611C40.3127 29.7349 40.3172 29.7084 40.3287 29.6846C40.3402 29.6609 40.3582 29.6409 40.3807 29.627H44.8277C44.8255 30.2063 44.8485 30.8001 44.8963 31.4036H40.3157L40.3157 29.7611Z" fill="#CA9762"/>
<path d="M30.9375 30C31.4346 29.9995 31.9113 29.8018 32.2628 29.4503C32.6143 29.0988 32.812 28.6221 32.8125 28.125V26.25H37.9688C38.2174 26.25 38.4558 26.1512 38.6317 25.9754C38.8075 25.7996 38.9062 25.5611 38.9062 25.3125C38.9062 25.0639 38.8075 24.8254 38.6317 24.6496C38.4558 24.4738 38.2174 24.375 37.9688 24.375H22.0312C21.7826 24.375 21.5442 24.4738 21.3683 24.6496C21.1925 24.8254 21.0938 25.0639 21.0938 25.3125C21.0938 25.5611 21.1925 25.7996 21.3683 25.9754C21.5442 26.1512 21.7826 26.25 22.0312 26.25H27.1875V28.125C27.1882 28.619 27.3836 29.0928 27.7315 29.4435C28.0794 29.7942 28.5516 29.9936 29.0456 29.9983V31.4062H28.7361C28.5268 31.4097 28.321 31.4608 28.1345 31.5558C27.9479 31.6507 27.7854 31.787 27.6595 31.9542L25.8801 34.2188H24.375C24.1264 34.2188 23.8879 34.3175 23.7121 34.4933C23.5363 34.6692 23.4375 34.9076 23.4375 35.1562C23.4375 35.4049 23.5363 35.6433 23.7121 35.8192C23.8879 35.995 24.1264 36.0938 24.375 36.0938H26.2083C26.3954 36.0915 26.5794 36.0467 26.7465 35.9626C26.9135 35.8785 27.0592 35.7574 27.1724 35.6085L29.0012 33.2812H30.8638L32.6921 35.6076C32.805 35.7569 32.9506 35.8783 33.1177 35.9626C33.2848 36.0469 33.469 36.0917 33.6562 36.0938H35.625C35.8736 36.0938 36.1121 35.995 36.2879 35.8192C36.4637 35.6433 36.5625 35.4049 36.5625 35.1562C36.5625 34.9076 36.4637 34.6692 36.2879 34.4933C36.1121 34.3175 35.8736 34.2188 35.625 34.2188H33.9853L32.205 31.9533C32.079 31.7863 31.9166 31.6503 31.7301 31.5555C31.5436 31.4607 31.338 31.4097 31.1288 31.4062H30.9206V30H30.9375ZM29.0625 28.125V26.25H30.9375V28.125H29.0625Z" fill="#CA9762"/>
</svg>
