<svg width="23" height="19" viewBox="0 0 23 19" fill="none" xmlns="http://www.w3.org/2000/svg">
<path d="M7.43522 18.3424C15.8189 18.3424 20.4057 11.3949 20.4057 5.37187C20.4057 5.17655 20.4014 4.9769 20.3927 4.78159C21.285 4.13631 22.055 3.33705 22.6666 2.42135C21.8356 2.79107 20.9533 3.03254 20.0498 3.13749C21.0011 2.56728 21.7133 1.67151 22.0546 0.616225C21.1597 1.14659 20.181 1.52071 19.1605 1.72256C18.4729 0.99196 17.5638 0.508215 16.5737 0.346117C15.5836 0.18402 14.5677 0.352598 13.683 0.825789C12.7983 1.29898 12.0942 2.05043 11.6794 2.96395C11.2646 3.87748 11.1623 4.9022 11.3883 5.87968C9.57627 5.78875 7.80354 5.31802 6.18506 4.49801C4.56658 3.67801 3.1385 2.52703 1.99338 1.1197C1.41137 2.12315 1.23328 3.31056 1.49529 4.4406C1.7573 5.57064 2.43976 6.55852 3.40397 7.20346C2.6801 7.18048 1.97209 6.98559 1.33843 6.63489V6.69131C1.33778 7.74436 1.70183 8.76513 2.3687 9.58012C3.03556 10.3951 3.96408 10.954 4.99642 11.1618C4.32587 11.3453 3.6221 11.372 2.93956 11.2399C3.23087 12.1455 3.79764 12.9376 4.56079 13.5056C5.32394 14.0736 6.24537 14.3892 7.19651 14.4083C5.58177 15.6767 3.58709 16.3647 1.53375 16.3615C1.1696 16.3609 0.805817 16.3386 0.444336 16.2946C2.53031 17.6329 4.95686 18.3436 7.43522 18.3424Z" fill="#EDEDED"/>
</svg>
