<svg width="92" height="93" viewBox="0 0 92 93" fill="none" xmlns="http://www.w3.org/2000/svg">
<path d="M65.167 65.4098C59.8743 65.4098 55.5837 61.1192 55.5837 55.8265C55.5837 50.5338 59.8743 46.2432 65.167 46.2432C70.4597 46.2432 74.7503 50.5338 74.7503 55.8265C74.7503 61.1192 70.4597 65.4098 65.167 65.4098ZM65.167 65.4098C74.694 65.4098 82.417 73.1328 82.417 82.6598M65.167 65.4098C55.64 65.4098 47.917 73.1328 47.917 82.6598" stroke="#CA9762" stroke-width="3" stroke-linecap="round"/>
<path d="M26.833 28.9933C21.5403 28.9933 17.2497 24.7027 17.2497 19.41C17.2497 14.1173 21.5403 9.82666 26.833 9.82666C32.1257 9.82666 36.4163 14.1173 36.4163 19.41C36.4163 24.7027 32.1257 28.9933 26.833 28.9933ZM26.833 28.9933C36.3599 28.9933 44.083 36.7164 44.083 46.2433M26.833 28.9933C17.3061 28.9933 9.58301 36.7164 9.58301 46.2433" stroke="#CA9762" stroke-width="3" stroke-linecap="round"/>
<path d="M13.417 59.6597C13.417 70.2562 21.9872 78.8263 32.5837 78.8263L30.667 71.1597" stroke="#CA9762" stroke-width="3" stroke-linecap="round"/>
<path d="M70.9167 32.8263C70.9167 22.2299 62.3465 13.6597 51.75 13.6597L53.6667 21.3263" stroke="#CA9762" stroke-width="3" stroke-linecap="round"/>
</svg>
