<svg width="320" height="47" viewBox="0 0 320 47" fill="none" xmlns="http://www.w3.org/2000/svg">
<g clip-path="url(#clip0_38_54)">
<path d="M0 7.9699V45.9399H0.82V9.0499L30.98 45.9499H31.89V18.8599H30.98V41.8999L3.28 7.9699H0ZM60.8 8.5699C65.55 8.5699 73.28 10.6399 76.56 22.9699C77.24 25.5799 77.58 27.8199 77.58 29.8599C77.58 42.3299 66.38 44.9599 66.38 44.9599C66.38 44.9599 64.85 45.4399 62.62 45.4399C57.92 45.4399 50.11 43.4299 46.83 30.9599C46.18 28.3799 45.78 26.1699 45.78 24.0999C45.78 11.6899 56.93 9.0499 56.93 9.0499C56.93 9.0499 58.4 8.5699 60.66 8.5699H60.8ZM61.73 7.9699C51.29 7.9699 42.72 16.5599 42.72 27.0099C42.72 37.4599 51.29 45.9399 61.73 45.9399C72.17 45.9399 80.63 37.4999 80.63 27.0099C80.63 16.5199 72.17 7.9699 61.73 7.9699ZM94.63 8.8799H105.18C108.43 8.8799 112.28 10.7499 114.52 16.6199C115.06 18.0899 115.34 19.3399 115.34 20.4499C115.34 25.5799 110.25 27.8499 105.18 27.8499H94.63V8.8799ZM91.52 7.9699V45.9399H94.63V28.6799H95.68C105.84 29.7899 109.26 46.4799 119.05 46.4799C119.45 46.4799 119.98 46.4199 120.46 46.3699V45.9399C112.59 45.9399 108.77 30.6699 101.33 28.6799H105.18C112.99 28.6799 118.62 24.0899 118.62 18.5099C118.62 12.9299 113.1 7.9699 105.18 7.9699H91.51H91.52ZM150.31 7.9099C139.87 7.9099 131.3 16.4999 131.3 26.9799C131.3 37.4599 139.67 45.9399 150.14 45.9399H150.31C154.78 45.9399 159.48 44.0699 162.62 40.4099C162.82 40.1799 163.1 39.9599 163.27 39.6999C163.33 39.6399 163.38 39.5299 163.44 39.4699C163.52 39.4099 163.58 39.2399 163.64 39.1899L163.98 38.6499C164.04 38.5899 164.04 38.4199 164.09 38.3699L164.46 37.8299L164.57 37.5999C164.63 37.4899 164.68 37.4299 164.74 37.3199C164.8 37.1799 164.8 37.1199 164.85 37.0099C164.93 36.8999 164.93 36.8399 164.99 36.7299H165.02C165.1 36.5599 165.27 36.2499 165.33 36.0799H165.27V30.8899H162.1V40.5499C158.93 43.9499 154.94 44.9399 154.94 44.9399C154.94 44.9399 153.41 45.3699 151.18 45.3699C146.48 45.3699 138.67 43.3599 135.39 30.8899C134.74 28.3099 134.34 26.1599 134.34 24.0899C134.34 11.6799 145.49 9.0399 145.49 9.0399C145.49 9.0399 146.96 8.4999 149.22 8.4999H149.36C153.41 8.4999 159.55 10.0299 163.37 17.9599V13.1999C159.97 9.9699 155.39 7.8999 150.3 7.8999L150.31 7.9099ZM176.17 7.9699V8.8799H204.86L176.17 45.1199V45.9399H208.03V45.1199H179.28L208.03 8.8799V7.9699H176.17Z" fill="#0C3635"/>
<path fill-rule="evenodd" clip-rule="evenodd" d="M31.4298 16.76C31.4298 12.28 35.0798 8.66003 39.5498 8.66003C35.0798 8.66003 31.4298 5.00003 31.4298 0.530029C31.4298 5.01003 27.8098 8.66003 23.3398 8.66003C27.8098 8.66003 31.4298 12.29 31.4298 16.76Z" fill="#CA9762"/>
<path d="M226.74 15.6501C225.86 15.6501 225.16 15.3901 224.65 14.8801C224.14 14.3701 223.89 13.6301 223.89 12.6101V8.64014H224.63V12.5801C224.63 13.4001 224.83 14.0301 225.2 14.3901C225.57 14.7901 226.08 14.9901 226.76 14.9901C227.44 14.9901 227.95 14.7901 228.32 14.3901C228.69 14.0201 228.89 13.4001 228.89 12.5801V8.64014H229.6V12.6101C229.6 13.6301 229.35 14.3701 228.84 14.8801C228.36 15.3901 227.65 15.6501 226.77 15.6501H226.74Z" fill="#CA9762"/>
<path d="M231.78 15.5999V8.65991H234.38C234.95 8.65991 235.46 8.76991 235.88 8.93991C236.3 9.13991 236.62 9.38991 236.84 9.75991C237.07 10.0999 237.18 10.5299 237.18 11.0399C237.18 11.5199 237.07 11.9499 236.84 12.3199C236.61 12.6599 236.3 12.9399 235.88 13.1099C235.46 13.3099 234.95 13.3899 234.38 13.3899H232.17L232.51 13.0499V15.5999H231.77H231.78ZM236.5 15.5999L234.72 13.0799H235.51L237.29 15.5999H236.5ZM232.51 13.1299L232.17 12.7599H234.35C235.03 12.7599 235.57 12.6199 235.93 12.3099C236.27 11.9999 236.47 11.5699 236.47 11.0299C236.47 10.4899 236.27 10.0399 235.93 9.74991C235.56 9.43991 235.02 9.29991 234.35 9.29991H232.17L232.51 8.92991V13.1199V13.1299Z" fill="#CA9762"/>
<path d="M238.94 15.5999V8.65991H241.91C242.67 8.65991 243.3 8.82991 243.72 9.13991C244.14 9.44991 244.34 9.87991 244.34 10.4399C244.34 10.8099 244.26 11.1499 244.09 11.3999C243.92 11.6499 243.67 11.8499 243.38 11.9699C243.07 12.1099 242.73 12.1699 242.39 12.1699L242.56 11.9399C242.98 11.9399 243.38 11.9999 243.69 12.1399C244 12.2799 244.26 12.4799 244.45 12.7399C244.62 13.0199 244.7 13.3599 244.7 13.7599C244.7 14.3299 244.47 14.7799 244.05 15.1199C243.63 15.4299 242.97 15.5999 242.1 15.5999H238.93H238.94ZM239.65 14.9999H242.11C242.7 14.9999 243.19 14.8899 243.5 14.6899C243.81 14.4599 243.98 14.1499 243.98 13.6699C243.98 13.2399 243.81 12.8999 243.5 12.7099C243.19 12.4799 242.71 12.3999 242.11 12.3999H239.59V11.7799H241.85C242.42 11.7799 242.84 11.6899 243.15 11.4699C243.46 11.2699 243.6 10.9599 243.6 10.5299C243.6 10.0999 243.46 9.78991 243.15 9.58991C242.84 9.35991 242.41 9.27991 241.85 9.27991H239.64V14.9999H239.65Z" fill="#CA9762"/>
<path d="M245.27 15.5999L248.44 8.65991H249.15L252.32 15.5999H251.56L248.65 9.07991H248.96L246.05 15.5999H245.29H245.27ZM246.51 13.7599L246.74 13.1599H250.76L250.96 13.7599H246.52H246.51Z" fill="#CA9762"/>
<path d="M253.48 15.5999V8.6499H254.07L258.85 14.6899H258.51V8.6499H259.25V15.5999H258.66L253.87 9.5599H254.19V15.5999H253.48Z" fill="#CA9762"/>
<path d="M223.94 30.45V23.51H226.77C227.51 23.51 228.16 23.65 228.72 23.96C229.26 24.24 229.71 24.64 229.99 25.18C230.3 25.69 230.47 26.29 230.47 26.97C230.47 27.65 230.3 28.27 229.99 28.78C229.71 29.29 229.25 29.72 228.72 30C228.15 30.31 227.5 30.45 226.77 30.45H223.94ZM224.68 29.8H226.72C227.34 29.8 227.88 29.69 228.33 29.46C228.78 29.2 229.12 28.86 229.38 28.44C229.63 28.01 229.75 27.53 229.75 26.97C229.75 26.41 229.64 25.92 229.38 25.5C229.13 25.1 228.79 24.76 228.33 24.51C227.88 24.28 227.34 24.17 226.72 24.17H224.68V29.81V29.8Z" fill="#CA9762"/>
<path d="M232.77 26.62H236.42V27.24H232.77V26.62ZM232.83 29.79H237.02L236.99 30.44H232.12V23.5H236.87V24.15H232.85L232.82 29.79H232.83Z" fill="#CA9762"/>
<path d="M240.6 30.45L237.52 23.5H238.31L241.2 30.02H240.75L243.63 23.5H244.37L241.31 30.45H240.6Z" fill="#CA9762"/>
<path d="M246.04 26.62H249.69V27.24H246.04V26.62ZM246.1 29.79H250.29L250.26 30.44H245.39V23.5H250.11V24.15H246.12L246.09 29.79H246.1Z" fill="#CA9762"/>
<path d="M252.01 30.45L251.98 23.5H252.71V29.79H256.59V30.45H252.01Z" fill="#CA9762"/>
<path d="M260.69 30.4999C260.18 30.4999 259.7 30.4099 259.25 30.2399C258.8 30.0399 258.43 29.8099 258.09 29.4699C257.78 29.1599 257.52 28.7899 257.33 28.3599C257.16 27.9299 257.08 27.4499 257.08 26.9399C257.08 26.4599 257.16 25.9799 257.33 25.5499C257.53 25.1199 257.78 24.7599 258.09 24.4399C258.43 24.1299 258.83 23.8699 259.25 23.6999C259.7 23.4999 260.18 23.4199 260.69 23.4199C261.23 23.4199 261.71 23.5099 262.13 23.6799C262.58 23.8799 262.95 24.1099 263.29 24.4199C263.6 24.7599 263.86 25.1299 264.05 25.5499C264.22 25.9799 264.3 26.4599 264.3 26.9399C264.3 27.4499 264.22 27.9299 264.05 28.3599C263.85 28.7899 263.6 29.1499 263.29 29.4899C262.95 29.7999 262.58 30.0299 262.13 30.2299C261.71 30.3999 261.22 30.4899 260.69 30.4899V30.4999ZM260.69 29.8499C261.11 29.8499 261.51 29.7599 261.85 29.6199C262.19 29.4799 262.5 29.2799 262.76 29.0199C263.04 28.7599 263.24 28.4499 263.38 28.1099C263.52 27.7699 263.61 27.3699 263.61 26.9499C263.61 26.5499 263.53 26.1599 263.38 25.8199C263.24 25.4799 263.04 25.1699 262.79 24.9099C262.51 24.6499 262.2 24.4599 261.86 24.3099C261.52 24.1699 261.12 24.0799 260.7 24.0799C260.28 24.0799 259.91 24.1699 259.54 24.3099C259.2 24.4499 258.89 24.6499 258.63 24.9099C258.35 25.1699 258.15 25.4799 258.01 25.8199C257.87 26.1599 257.78 26.5599 257.78 26.9499C257.78 27.3799 257.86 27.7399 258.01 28.1099C258.15 28.4499 258.35 28.7599 258.63 29.0199C258.88 29.2799 259.2 29.4699 259.54 29.6199C259.91 29.7599 260.28 29.8499 260.7 29.8499H260.69Z" fill="#CA9762"/>
<path d="M265.95 30.45V23.51H268.55C269.14 23.51 269.65 23.62 270.05 23.79C270.47 23.99 270.81 24.24 271.04 24.61C271.27 24.95 271.38 25.38 271.38 25.89C271.38 26.37 271.27 26.8 271.04 27.17C270.81 27.51 270.47 27.79 270.05 27.96C269.65 28.16 269.14 28.27 268.55 28.27H266.37L266.68 27.9V30.45H265.94H265.95ZM266.69 27.96L266.38 27.62H268.53C269.24 27.62 269.75 27.48 270.11 27.17C270.48 26.86 270.65 26.43 270.65 25.89C270.65 25.32 270.48 24.9 270.11 24.61C269.74 24.3 269.23 24.16 268.53 24.16H266.38L266.69 23.79V27.96Z" fill="#CA9762"/>
<path d="M272.97 30.45V23.5H273.57L276.73 28.91H276.42L279.56 23.5H280.16V30.45H279.45V24.61H279.62L276.73 29.57H276.4L273.48 24.61H273.68V30.45H272.97Z" fill="#CA9762"/>
<path d="M283.07 26.62H286.72V27.24H283.07V26.62ZM283.13 29.79H287.29V30.44H282.4L282.43 23.5H287.15V24.15H283.13V29.79Z" fill="#CA9762"/>
<path d="M289.01 30.45V23.5H289.64L294.39 29.54H294.08V23.5H294.81V30.45H294.19L289.44 24.41H289.75V30.45H289.01Z" fill="#CA9762"/>
<path d="M298.41 30.45V24.15H295.97V23.5H301.58V24.15H299.11L299.14 30.45H298.41Z" fill="#CA9762"/>
<path d="M226.97 45.35C226.43 45.35 225.95 45.26 225.53 45.07C225.08 44.9 224.68 44.67 224.37 44.33C224.06 44.02 223.8 43.65 223.61 43.22C223.44 42.79 223.36 42.31 223.36 41.8C223.36 41.29 223.44 40.84 223.61 40.41C223.81 39.98 224.06 39.59 224.37 39.28C224.71 38.97 225.08 38.71 225.53 38.54C225.95 38.37 226.44 38.28 226.97 38.28C227.48 38.28 227.93 38.37 228.38 38.54C228.8 38.71 229.2 38.97 229.48 39.31L229.03 39.76C228.75 39.48 228.44 39.25 228.1 39.14C227.76 39 227.39 38.94 227 38.94C226.58 38.94 226.18 39.03 225.84 39.17C225.47 39.31 225.16 39.51 224.91 39.77C224.66 40.03 224.43 40.34 224.29 40.68C224.15 41.02 224.06 41.42 224.06 41.81C224.06 42.24 224.14 42.6 224.29 42.97C224.43 43.31 224.66 43.62 224.91 43.88C225.16 44.14 225.48 44.33 225.84 44.48C226.18 44.62 226.58 44.71 227 44.71C227.4 44.71 227.76 44.62 228.1 44.51C228.44 44.37 228.75 44.17 229.03 43.86L229.48 44.34C229.2 44.68 228.8 44.94 228.38 45.11C227.93 45.28 227.45 45.37 226.97 45.37V45.35Z" fill="#CA9762"/>
<path d="M233.93 45.35C233.42 45.35 232.94 45.26 232.49 45.07C232.04 44.9 231.67 44.67 231.33 44.33C231.02 44.02 230.76 43.65 230.57 43.22C230.4 42.77 230.32 42.31 230.32 41.8C230.32 41.32 230.4 40.84 230.57 40.41C230.77 39.98 231.02 39.62 231.33 39.3C231.67 38.96 232.07 38.73 232.49 38.53C232.91 38.36 233.4 38.27 233.93 38.27C234.44 38.27 234.95 38.36 235.37 38.53C235.82 38.7 236.19 38.96 236.53 39.27C236.84 39.58 237.1 39.98 237.29 40.4C237.46 40.83 237.54 41.28 237.54 41.79C237.54 42.3 237.46 42.78 237.29 43.21C237.09 43.64 236.84 44 236.53 44.32C236.19 44.66 235.82 44.89 235.37 45.06C234.95 45.26 234.44 45.34 233.93 45.34V45.35ZM233.93 44.7C234.35 44.7 234.72 44.61 235.09 44.47C235.43 44.33 235.74 44.13 236 43.87C236.28 43.61 236.48 43.3 236.62 42.96C236.76 42.59 236.85 42.22 236.85 41.8C236.85 41.4 236.77 41.01 236.62 40.67C236.48 40.33 236.28 40.02 236.03 39.76C235.75 39.5 235.44 39.31 235.1 39.16C234.73 39.02 234.36 38.93 233.94 38.93C233.52 38.93 233.15 39.02 232.78 39.16C232.44 39.3 232.13 39.5 231.85 39.76C231.6 40.02 231.4 40.33 231.26 40.67C231.12 41.01 231.03 41.41 231.03 41.8C231.03 42.23 231.11 42.59 231.26 42.96C231.4 43.3 231.6 43.61 231.85 43.87C232.13 44.13 232.44 44.32 232.78 44.47C233.15 44.61 233.52 44.7 233.94 44.7H233.93Z" fill="#CA9762"/>
<path d="M239.19 45.2901V38.3501H239.81L242.98 43.7601H242.64L245.78 38.3501H246.38V45.2901H245.7V39.4601H245.87L242.98 44.4201H242.61L239.73 39.4601H239.9V45.2901H239.19Z" fill="#CA9762"/>
<path d="M248.64 45.2901V38.3501H251.24C251.81 38.3501 252.32 38.4401 252.74 38.6301C253.16 38.8201 253.48 39.0801 253.7 39.4501C253.93 39.7901 254.04 40.2201 254.04 40.7301C254.04 41.2101 253.93 41.6401 253.7 41.9801C253.47 42.3501 253.16 42.6301 252.74 42.8001C252.32 43.0001 251.81 43.0801 251.24 43.0801H249.03L249.37 42.7401V45.2901H248.63H248.64ZM249.38 42.8001L249.04 42.4601H251.22C251.9 42.4601 252.44 42.2901 252.8 42.0101C253.14 41.7001 253.34 41.2701 253.34 40.7301C253.34 40.1601 253.14 39.7401 252.8 39.4501C252.43 39.1401 251.89 38.9701 251.22 38.9701H249.04L249.38 38.6301V42.8001Z" fill="#CA9762"/>
<path d="M254.19 45.2901L257.36 38.3501H258.07L261.24 45.2901H260.48L257.57 38.7701H257.88L254.97 45.2901H254.21H254.19ZM255.43 43.4201L255.66 42.8201H259.68L259.91 43.4201H255.44H255.43Z" fill="#CA9762"/>
<path d="M262.39 45.2901V38.3501H262.98L267.77 44.3901H267.45V38.3501H268.16V45.2901H267.57L262.79 39.2601H263.13V45.2901H262.39Z" fill="#CA9762"/>
<path d="M272.07 45.2901V42.7201L272.24 43.1701L269.29 38.3501H270.09L272.66 42.5701H272.24L274.84 38.3501H275.55L272.63 43.1701L272.8 42.7201V45.2901H272.07Z" fill="#CA9762"/>
<path d="M279.28 45.2901V38.3501H280.02V44.6401H283.89V45.2901H279.28Z" fill="#CA9762"/>
<path d="M285.85 38.3501H285.11V45.2901H285.85V38.3501Z" fill="#CA9762"/>
<path d="M288.08 45.2901V38.3501H288.7L291.84 43.7601H291.53L294.67 38.3501H295.27V45.2901H294.59V39.4601H294.76L291.84 44.4201H291.5L288.62 39.4601H288.79V45.2901H288.08Z" fill="#CA9762"/>
<path d="M298.27 38.3501H297.53V45.2901H298.27V38.3501Z" fill="#CA9762"/>
<path d="M301.86 45.2901V38.9701H299.43V38.3501H305.03V38.9701H302.59V45.2901H301.86Z" fill="#CA9762"/>
<path d="M306.84 41.4401H310.49V42.0601H306.84V41.4401ZM306.92 44.6401H311.08V45.2901H306.19V38.3501H310.94V38.9701H306.92V44.6401Z" fill="#CA9762"/>
<path d="M312.81 45.2901V38.3501H315.61C316.35 38.3501 317 38.4901 317.56 38.8001C318.13 39.0801 318.55 39.4801 318.86 40.0201C319.17 40.5301 319.31 41.1301 319.31 41.8101C319.31 42.4901 319.17 43.1101 318.86 43.6201C318.55 44.1301 318.12 44.5601 317.56 44.8401C317 45.1201 316.34 45.2901 315.61 45.2901H312.81ZM313.55 44.6401H315.59C316.21 44.6401 316.72 44.5301 317.17 44.3001C317.62 44.0401 317.99 43.7001 318.25 43.2801C318.48 42.8501 318.62 42.3701 318.62 41.8101C318.62 41.2501 318.48 40.7601 318.25 40.3401C318 39.9101 317.63 39.6001 317.17 39.3501C316.72 39.1201 316.21 38.9801 315.59 38.9801H313.55V44.6501V44.6401Z" fill="#CA9762"/>
<path d="M165.29 30.8999H151.62V31.7799H165.29V30.8999Z" fill="#0C3635"/>
</g>
<defs>
<clipPath id="clip0_38_54">
<rect width="319.32" height="45.96" fill="white" transform="translate(0 0.52002)"/>
</clipPath>
</defs>
</svg>
