<svg width="320" height="47" viewBox="0 0 320 47" fill="none" xmlns="http://www.w3.org/2000/svg">
<g clip-path="url(#clip0_38_1185)">
<path d="M0.339844 7.69305V45.663H1.15984V8.77305L31.3198 45.673H32.2298V18.583H31.3198V41.623L3.61984 7.69305H0.339844ZM61.1398 8.29305C65.8898 8.29305 73.6198 10.363 76.8998 22.693C77.5798 25.303 77.9198 27.543 77.9198 29.583C77.9198 42.053 66.7198 44.683 66.7198 44.683C66.7198 44.683 65.1898 45.163 62.9598 45.163C58.2598 45.163 50.4498 43.153 47.1698 30.683C46.5198 28.103 46.1198 25.893 46.1198 23.823C46.1198 11.413 57.2698 8.77305 57.2698 8.77305C57.2698 8.77305 58.7398 8.29305 60.9998 8.29305H61.1398ZM62.0698 7.69305C51.6298 7.69305 43.0598 16.283 43.0598 26.733C43.0598 37.183 51.6298 45.663 62.0698 45.663C72.5098 45.663 80.9698 37.223 80.9698 26.733C80.9698 16.243 72.5098 7.69305 62.0698 7.69305ZM94.9698 8.60305H105.52C108.77 8.60305 112.62 10.473 114.86 16.343C115.4 17.813 115.68 19.063 115.68 20.173C115.68 25.303 110.59 27.573 105.52 27.573H94.9698V8.60305ZM91.8598 7.69305V45.663H94.9698V28.403H96.0198C106.18 29.513 109.6 46.203 119.39 46.203C119.79 46.203 120.32 46.143 120.8 46.093V45.663C112.93 45.663 109.11 30.393 101.67 28.403H105.52C113.33 28.403 118.96 23.813 118.96 18.233C118.96 12.653 113.44 7.69305 105.52 7.69305H91.8498H91.8598ZM150.65 7.63305C140.21 7.63305 131.64 16.223 131.64 26.703C131.64 37.183 140.01 45.663 150.48 45.663H150.65C155.12 45.663 159.82 43.793 162.96 40.133C163.16 39.903 163.44 39.683 163.61 39.423C163.67 39.363 163.72 39.253 163.78 39.193C163.86 39.133 163.92 38.963 163.98 38.913L164.32 38.373C164.38 38.313 164.38 38.143 164.43 38.093L164.8 37.553L164.91 37.323C164.97 37.213 165.02 37.153 165.08 37.043C165.14 36.903 165.14 36.843 165.19 36.733C165.27 36.623 165.27 36.563 165.33 36.453H165.36C165.44 36.283 165.61 35.973 165.67 35.803H165.61V30.613H162.44V40.273C159.27 43.673 155.28 44.663 155.28 44.663C155.28 44.663 153.75 45.093 151.52 45.093C146.82 45.093 139.01 43.083 135.73 30.613C135.08 28.033 134.68 25.883 134.68 23.813C134.68 11.403 145.83 8.76305 145.83 8.76305C145.83 8.76305 147.3 8.22305 149.56 8.22305H149.7C153.75 8.22305 159.89 9.75305 163.71 17.683V12.923C160.31 9.69305 155.73 7.62305 150.64 7.62305L150.65 7.63305ZM176.51 7.69305V8.60305H205.2L176.51 44.843V45.663H208.37V44.843H179.62L208.37 8.60305V7.69305H176.51Z" fill="#FEFEFE"/>
<path fill-rule="evenodd" clip-rule="evenodd" d="M31.7697 16.4829C31.7697 12.0029 35.4197 8.38293 39.8897 8.38293C35.4197 8.38293 31.7697 4.72293 31.7697 0.25293C31.7697 4.73293 28.1497 8.38293 23.6797 8.38293C28.1497 8.38293 31.7697 12.0129 31.7697 16.4829Z" fill="#CA9762"/>
<path d="M227.079 15.3733C226.199 15.3733 225.499 15.1133 224.989 14.6033C224.479 14.0933 224.229 13.3533 224.229 12.3333V8.36328H224.969V12.3033C224.969 13.1233 225.169 13.7533 225.539 14.1133C225.909 14.5133 226.419 14.7133 227.099 14.7133C227.779 14.7133 228.29 14.5133 228.66 14.1133C229.03 13.7433 229.229 13.1233 229.229 12.3033V8.36328H229.939V12.3333C229.939 13.3533 229.689 14.0933 229.179 14.6033C228.699 15.1133 227.989 15.3733 227.109 15.3733H227.079Z" fill="#CA9762"/>
<path d="M232.119 15.3228V8.38281H234.719C235.289 8.38281 235.799 8.49281 236.219 8.66281C236.639 8.86281 236.959 9.11281 237.179 9.48281C237.409 9.82281 237.519 10.2528 237.519 10.7628C237.519 11.2428 237.409 11.6728 237.179 12.0428C236.949 12.3828 236.639 12.6628 236.219 12.8328C235.799 13.0328 235.289 13.1128 234.719 13.1128H232.509L232.849 12.7728V15.3228H232.109H232.119ZM236.839 15.3228L235.059 12.8028H235.849L237.629 15.3228H236.839ZM232.849 12.8528L232.509 12.4828H234.689C235.369 12.4828 235.909 12.3428 236.269 12.0328C236.609 11.7228 236.809 11.2928 236.809 10.7528C236.809 10.2128 236.609 9.76281 236.269 9.47281C235.899 9.16281 235.359 9.02281 234.689 9.02281H232.509L232.849 8.65281V12.8428V12.8528Z" fill="#CA9762"/>
<path d="M239.28 15.3228V8.38281H242.25C243.01 8.38281 243.64 8.55281 244.06 8.86281C244.48 9.17281 244.68 9.60281 244.68 10.1628C244.68 10.5328 244.6 10.8728 244.43 11.1228C244.26 11.3728 244.01 11.5728 243.72 11.6928C243.41 11.8328 243.07 11.8928 242.73 11.8928L242.9 11.6628C243.32 11.6628 243.72 11.7228 244.03 11.8628C244.34 12.0028 244.6 12.2028 244.79 12.4628C244.96 12.7428 245.04 13.0828 245.04 13.4828C245.04 14.0528 244.81 14.5028 244.39 14.8428C243.97 15.1528 243.31 15.3228 242.44 15.3228H239.27H239.28ZM239.99 14.7228H242.45C243.04 14.7228 243.53 14.6128 243.84 14.4128C244.15 14.1828 244.32 13.8728 244.32 13.3928C244.32 12.9628 244.15 12.6228 243.84 12.4328C243.53 12.2028 243.05 12.1228 242.45 12.1228H239.93V11.5028H242.19C242.76 11.5028 243.18 11.4128 243.49 11.1928C243.8 10.9928 243.94 10.6828 243.94 10.2528C243.94 9.82281 243.8 9.51281 243.49 9.31281C243.18 9.08281 242.75 9.00281 242.19 9.00281H239.98V14.7228H239.99Z" fill="#CA9762"/>
<path d="M245.609 15.3228L248.779 8.38281H249.489L252.659 15.3228H251.899L248.989 8.80281H249.299L246.389 15.3228H245.629H245.609ZM246.849 13.4828L247.079 12.8828H251.099L251.299 13.4828H246.859H246.849Z" fill="#CA9762"/>
<path d="M253.82 15.323V8.37305H254.41L259.19 14.413H258.85V8.37305H259.59V15.323H259L254.21 9.28305H254.53V15.323H253.82Z" fill="#CA9762"/>
<path d="M224.28 30.1734V23.2334H227.11C227.85 23.2334 228.5 23.3734 229.06 23.6834C229.6 23.9634 230.05 24.3634 230.33 24.9034C230.64 25.4134 230.81 26.0134 230.81 26.6934C230.81 27.3734 230.64 27.9934 230.33 28.5034C230.05 29.0134 229.59 29.4434 229.06 29.7234C228.49 30.0334 227.84 30.1734 227.11 30.1734H224.28ZM225.02 29.5234H227.06C227.68 29.5234 228.22 29.4134 228.67 29.1834C229.12 28.9234 229.46 28.5834 229.72 28.1634C229.97 27.7334 230.09 27.2534 230.09 26.6934C230.09 26.1334 229.98 25.6434 229.72 25.2234C229.47 24.8234 229.13 24.4834 228.67 24.2334C228.22 24.0034 227.68 23.8934 227.06 23.8934H225.02V29.5334V29.5234Z" fill="#CA9762"/>
<path d="M233.11 26.3436H236.76V26.9636H233.11V26.3436ZM233.17 29.5136H237.36L237.33 30.1636H232.46V23.2236H237.21V23.8736H233.19L233.16 29.5136H233.17Z" fill="#CA9762"/>
<path d="M240.939 30.1736L237.859 23.2236H238.649L241.539 29.7436H241.089L243.969 23.2236H244.709L241.649 30.1736H240.939Z" fill="#CA9762"/>
<path d="M246.379 26.3436H250.029V26.9636H246.379V26.3436ZM246.439 29.5136H250.629L250.599 30.1636H245.729V23.2236H250.449V23.8736H246.459L246.429 29.5136H246.439Z" fill="#CA9762"/>
<path d="M252.35 30.1736L252.32 23.2236H253.05V29.5136H256.93V30.1736H252.35Z" fill="#CA9762"/>
<path d="M261.03 30.2236C260.52 30.2236 260.04 30.1336 259.59 29.9636C259.14 29.7636 258.77 29.5336 258.43 29.1936C258.12 28.8836 257.86 28.5136 257.67 28.0836C257.5 27.6536 257.42 27.1736 257.42 26.6636C257.42 26.1836 257.5 25.7036 257.67 25.2736C257.87 24.8436 258.12 24.4836 258.43 24.1636C258.77 23.8536 259.17 23.5936 259.59 23.4236C260.04 23.2236 260.52 23.1436 261.03 23.1436C261.57 23.1436 262.05 23.2336 262.47 23.4036C262.92 23.6036 263.29 23.8336 263.63 24.1436C263.94 24.4836 264.2 24.8536 264.39 25.2736C264.56 25.7036 264.64 26.1836 264.64 26.6636C264.64 27.1736 264.56 27.6536 264.39 28.0836C264.19 28.5136 263.94 28.8736 263.63 29.2136C263.29 29.5236 262.92 29.7536 262.47 29.9536C262.05 30.1236 261.56 30.2136 261.03 30.2136V30.2236ZM261.03 29.5736C261.45 29.5736 261.85 29.4836 262.19 29.3436C262.53 29.2036 262.84 29.0036 263.1 28.7436C263.38 28.4836 263.58 28.1736 263.72 27.8336C263.86 27.4936 263.95 27.0936 263.95 26.6736C263.95 26.2736 263.87 25.8836 263.72 25.5436C263.58 25.2036 263.38 24.8936 263.13 24.6336C262.85 24.3736 262.54 24.1836 262.2 24.0336C261.86 23.8936 261.46 23.8036 261.04 23.8036C260.62 23.8036 260.25 23.8936 259.88 24.0336C259.54 24.1736 259.23 24.3736 258.97 24.6336C258.69 24.8936 258.49 25.2036 258.35 25.5436C258.21 25.8836 258.12 26.2836 258.12 26.6736C258.12 27.1036 258.2 27.4636 258.35 27.8336C258.49 28.1736 258.69 28.4836 258.97 28.7436C259.22 29.0036 259.54 29.1936 259.88 29.3436C260.25 29.4836 260.62 29.5736 261.04 29.5736H261.03Z" fill="#CA9762"/>
<path d="M266.29 30.1734V23.2334H268.89C269.48 23.2334 269.99 23.3434 270.39 23.5134C270.81 23.7134 271.15 23.9634 271.38 24.3334C271.61 24.6734 271.72 25.1034 271.72 25.6134C271.72 26.0934 271.61 26.5234 271.38 26.8934C271.15 27.2334 270.81 27.5134 270.39 27.6834C269.99 27.8834 269.48 27.9934 268.89 27.9934H266.71L267.02 27.6234V30.1734H266.28H266.29ZM267.03 27.6834L266.72 27.3434H268.87C269.58 27.3434 270.09 27.2034 270.45 26.8934C270.82 26.5834 270.99 26.1534 270.99 25.6134C270.99 25.0434 270.82 24.6234 270.45 24.3334C270.08 24.0234 269.57 23.8834 268.87 23.8834H266.72L267.03 23.5134V27.6834Z" fill="#CA9762"/>
<path d="M273.31 30.1736V23.2236H273.91L277.07 28.6336H276.76L279.9 23.2236H280.5V30.1736H279.79V24.3336H279.96L277.07 29.2936H276.74L273.82 24.3336H274.02V30.1736H273.31Z" fill="#CA9762"/>
<path d="M283.41 26.3436H287.06V26.9636H283.41V26.3436ZM283.47 29.5136H287.63V30.1636H282.74L282.77 23.2236H287.49V23.8736H283.47V29.5136Z" fill="#CA9762"/>
<path d="M289.35 30.1736V23.2236H289.98L294.73 29.2636H294.42V23.2236H295.15V30.1736H294.53L289.78 24.1336H290.09V30.1736H289.35Z" fill="#CA9762"/>
<path d="M298.75 30.1736V23.8736H296.31V23.2236H301.92V23.8736H299.45L299.48 30.1736H298.75Z" fill="#CA9762"/>
<path d="M227.31 45.0729C226.77 45.0729 226.29 44.9829 225.87 44.7929C225.42 44.6229 225.02 44.3929 224.71 44.0529C224.4 43.7429 224.14 43.3729 223.95 42.9429C223.78 42.5129 223.7 42.0329 223.7 41.5229C223.7 41.0129 223.78 40.5629 223.95 40.1329C224.15 39.7029 224.4 39.3129 224.71 39.0029C225.05 38.6929 225.42 38.4329 225.87 38.2629C226.29 38.0929 226.78 38.0029 227.31 38.0029C227.82 38.0029 228.27 38.0929 228.72 38.2629C229.14 38.4329 229.54 38.6929 229.82 39.0329L229.37 39.4829C229.09 39.2029 228.78 38.9729 228.44 38.8629C228.1 38.7229 227.73 38.6629 227.34 38.6629C226.92 38.6629 226.52 38.7529 226.18 38.8929C225.81 39.0329 225.5 39.2329 225.25 39.4929C225 39.7529 224.77 40.0629 224.63 40.4029C224.49 40.7429 224.4 41.1429 224.4 41.5329C224.4 41.9629 224.48 42.3229 224.63 42.6929C224.77 43.0329 225 43.3429 225.25 43.6029C225.5 43.8629 225.82 44.0529 226.18 44.2029C226.52 44.3429 226.92 44.4329 227.34 44.4329C227.74 44.4329 228.1 44.3429 228.44 44.2329C228.78 44.0929 229.09 43.8929 229.37 43.5829L229.82 44.0629C229.54 44.4029 229.14 44.6629 228.72 44.8329C228.27 45.0029 227.79 45.0929 227.31 45.0929V45.0729Z" fill="#CA9762"/>
<path d="M234.27 45.0732C233.76 45.0732 233.28 44.9832 232.83 44.7932C232.38 44.6232 232.01 44.3932 231.67 44.0532C231.36 43.7432 231.1 43.3732 230.91 42.9432C230.74 42.4932 230.66 42.0332 230.66 41.5232C230.66 41.0432 230.74 40.5632 230.91 40.1332C231.11 39.7032 231.36 39.3432 231.67 39.0232C232.01 38.6832 232.41 38.4532 232.83 38.2532C233.25 38.0832 233.74 37.9932 234.27 37.9932C234.78 37.9932 235.29 38.0832 235.71 38.2532C236.16 38.4232 236.53 38.6832 236.87 38.9932C237.18 39.3032 237.44 39.7032 237.63 40.1232C237.8 40.5532 237.88 41.0032 237.88 41.5132C237.88 42.0232 237.8 42.5032 237.63 42.9332C237.43 43.3632 237.18 43.7232 236.87 44.0432C236.53 44.3832 236.16 44.6132 235.71 44.7832C235.29 44.9832 234.78 45.0632 234.27 45.0632V45.0732ZM234.27 44.4232C234.69 44.4232 235.06 44.3332 235.43 44.1932C235.77 44.0532 236.08 43.8532 236.34 43.5932C236.62 43.3332 236.82 43.0232 236.96 42.6832C237.1 42.3132 237.19 41.9432 237.19 41.5232C237.19 41.1232 237.11 40.7332 236.96 40.3932C236.82 40.0532 236.62 39.7432 236.37 39.4832C236.09 39.2232 235.78 39.0332 235.44 38.8832C235.07 38.7432 234.7 38.6532 234.28 38.6532C233.86 38.6532 233.49 38.7432 233.12 38.8832C232.78 39.0232 232.47 39.2232 232.19 39.4832C231.94 39.7432 231.74 40.0532 231.6 40.3932C231.46 40.7332 231.37 41.1332 231.37 41.5232C231.37 41.9532 231.45 42.3132 231.6 42.6832C231.74 43.0232 231.94 43.3332 232.19 43.5932C232.47 43.8532 232.78 44.0432 233.12 44.1932C233.49 44.3332 233.86 44.4232 234.28 44.4232H234.27Z" fill="#CA9762"/>
<path d="M239.53 45.0132V38.0732H240.15L243.32 43.4832H242.98L246.12 38.0732H246.72V45.0132H246.04V39.1832H246.21L243.32 44.1432H242.95L240.07 39.1832H240.24V45.0132H239.53Z" fill="#CA9762"/>
<path d="M248.98 45.0132V38.0732H251.58C252.15 38.0732 252.66 38.1632 253.08 38.3532C253.5 38.5432 253.82 38.8032 254.04 39.1732C254.27 39.5132 254.38 39.9432 254.38 40.4532C254.38 40.9332 254.27 41.3632 254.04 41.7032C253.81 42.0732 253.5 42.3532 253.08 42.5232C252.66 42.7232 252.15 42.8032 251.58 42.8032H249.37L249.71 42.4632V45.0132H248.97H248.98ZM249.72 42.5232L249.38 42.1832H251.56C252.24 42.1832 252.78 42.0132 253.14 41.7332C253.48 41.4232 253.68 40.9932 253.68 40.4532C253.68 39.8832 253.48 39.4632 253.14 39.1732C252.77 38.8632 252.23 38.6932 251.56 38.6932H249.38L249.72 38.3532V42.5232Z" fill="#CA9762"/>
<path d="M254.53 45.0132L257.7 38.0732H258.41L261.58 45.0132H260.82L257.91 38.4932H258.22L255.31 45.0132H254.55H254.53ZM255.77 43.1432L256 42.5432H260.02L260.25 43.1432H255.78H255.77Z" fill="#CA9762"/>
<path d="M262.729 45.0132V38.0732H263.319L268.109 44.1132H267.789V38.0732H268.499V45.0132H267.909L263.129 38.9832H263.469V45.0132H262.729Z" fill="#CA9762"/>
<path d="M272.41 45.0132V42.4432L272.58 42.8932L269.63 38.0732H270.43L273 42.2932H272.58L275.18 38.0732H275.89L272.97 42.8932L273.14 42.4432V45.0132H272.41Z" fill="#CA9762"/>
<path d="M279.62 45.0132V38.0732H280.36V44.3632H284.23V45.0132H279.62Z" fill="#CA9762"/>
<path d="M286.19 38.0732H285.45V45.0132H286.19V38.0732Z" fill="#CA9762"/>
<path d="M288.42 45.0132V38.0732H289.04L292.18 43.4832H291.87L295.01 38.0732H295.61V45.0132H294.93V39.1832H295.1L292.18 44.1432H291.84L288.96 39.1832H289.13V45.0132H288.42Z" fill="#CA9762"/>
<path d="M298.61 38.0732H297.87V45.0132H298.61V38.0732Z" fill="#CA9762"/>
<path d="M302.2 45.0132V38.6932H299.77V38.0732H305.37V38.6932H302.93V45.0132H302.2Z" fill="#CA9762"/>
<path d="M307.18 41.1632H310.83V41.7832H307.18V41.1632ZM307.26 44.3632H311.42V45.0132H306.53V38.0732H311.28V38.6932H307.26V44.3632Z" fill="#CA9762"/>
<path d="M313.149 45.0132V38.0732H315.949C316.689 38.0732 317.339 38.2132 317.899 38.5232C318.469 38.8032 318.889 39.2032 319.199 39.7432C319.509 40.2532 319.649 40.8532 319.649 41.5332C319.649 42.2132 319.509 42.8332 319.199 43.3432C318.889 43.8532 318.459 44.2832 317.899 44.5632C317.339 44.8432 316.679 45.0132 315.949 45.0132H313.149ZM313.889 44.3632H315.929C316.549 44.3632 317.059 44.2532 317.509 44.0232C317.959 43.7632 318.329 43.4232 318.589 43.0032C318.819 42.5732 318.959 42.0932 318.959 41.5332C318.959 40.9732 318.819 40.4832 318.589 40.0632C318.339 39.6332 317.969 39.3232 317.509 39.0732C317.059 38.8432 316.549 38.7032 315.929 38.7032H313.889V44.3732V44.3632Z" fill="#CA9762"/>
<path d="M165.63 30.623H151.96V31.503H165.63V30.623Z" fill="#FEFEFE"/>
</g>
<defs>
<clipPath id="clip0_38_1185">
<rect width="319.32" height="45.96" fill="white" transform="translate(0.339844 0.243164)"/>
</clipPath>
</defs>
</svg>
